<?xml version="1.0" standalone="no"?>
<!DOCTYPE svg PUBLIC "-//W3C//DTD SVG 20010904//EN"
 "http://www.w3.org/TR/2001/REC-SVG-20010904/DTD/svg10.dtd">
<svg version="1.0" xmlns="http://www.w3.org/2000/svg"
 width="512.000000pt" height="512.000000pt" viewBox="0 0 512.000000 512.000000"
 preserveAspectRatio="xMidYMid meet">
<metadata>
Created by potrace 1.15, written by Peter Selinger 2001-2017
</metadata>
<g transform="translate(0.000000,512.000000) scale(0.100000,-0.100000)"
fill="#000000" stroke="none">
<path d="M203 4958 c-174 -172 -196 -198 -191 -231 3 -19 32 5 192 163 103
102 192 193 197 203 8 14 5 17 -17 17 -21 0 -60 -33 -181 -152z"/>
<path d="M303 4858 c-140 -139 -264 -265 -275 -281 -10 -15 -18 -37 -16 -50 3
-18 49 23 292 263 158 157 292 293 297 303 8 14 5 17 -17 17 -22 0 -75 -47
-281 -252z"/>
<path d="M402 4758 c-194 -194 -362 -365 -373 -381 -11 -15 -19 -37 -17 -50 4
-18 67 40 392 363 213 212 392 393 397 403 8 14 5 17 -18 17 -22 0 -89 -62
-381 -352z"/>
<path d="M502 4658 c-249 -249 -462 -465 -473 -481 -11 -15 -19 -37 -17 -50 4
-18 84 57 492 463 268 267 492 493 497 503 8 14 5 17 -18 17 -22 0 -104 -76
-481 -452z"/>
<path d="M602 4558 c-304 -304 -562 -565 -573 -581 -11 -15 -19 -37 -17 -50 4
-18 101 75 592 563 323 322 592 593 597 603 8 14 5 17 -18 17 -23 0 -118 -91
-581 -552z"/>
<path d="M702 4458 c-359 -359 -662 -665 -673 -681 -11 -15 -19 -37 -17 -50 4
-18 118 92 692 663 378 377 692 693 697 703 8 14 5 17 -18 17 -23 0 -133 -106
-681 -652z"/>
<path d="M802 4358 c-414 -414 -762 -765 -773 -781 -11 -15 -19 -37 -17 -50 4
-18 136 109 792 763 433 432 792 793 797 803 8 14 5 17 -18 17 -23 0 -148
-120 -781 -752z"/>
<path d="M902 4258 c-469 -469 -862 -865 -873 -881 -11 -15 -19 -37 -17 -50 4
-18 153 126 892 863 488 487 892 893 897 903 8 14 5 17 -18 17 -23 0 -162
-135 -881 -852z"/>
<path d="M1002 4158 c-524 -524 -962 -965 -973 -981 -11 -15 -19 -37 -17 -50
4 -18 170 144 992 963 543 542 992 993 997 1003 8 14 5 17 -18 17 -23 0 -177
-149 -981 -952z"/>
<path d="M1102 4058 c-579 -579 -1062 -1065 -1073 -1081 -11 -15 -19 -37 -17
-50 4 -18 152 125 885 857 772 770 882 876 888 857 4 -12 18 -27 31 -33 24
-11 -7 -44 -890 -928 -767 -766 -916 -920 -916 -943 0 -15 3 -27 7 -27 4 0
446 438 983 974 l975 973 88 37 c49 20 94 36 100 36 7 0 -475 -487 -1071
-1083 -907 -908 -1082 -1087 -1082 -1110 0 -15 3 -27 7 -27 4 0 516 508 1138
1129 l1130 1129 50 7 c28 3 61 9 75 12 41 9 -273 -304 -330 -329 -59 -26 -77
-43 -85 -82 -5 -24 -216 -240 -996 -1021 -835 -836 -989 -995 -989 -1018 0
-23 3 -26 18 -18 9 5 460 453 1001 995 867 867 987 983 1004 974 11 -5 37 -8
58 -6 38 3 1 -35 -1021 -1057 -889 -889 -1060 -1065 -1060 -1088 0 -15 3 -27
7 -27 4 0 512 504 1128 1119 l1120 1120 61 15 c34 9 70 16 80 16 12 0 -444
-463 -1189 -1208 -1013 -1014 -1207 -1212 -1207 -1235 0 -15 3 -27 7 -27 4 0
159 152 345 337 l337 336 -25 -67 c-13 -37 -24 -77 -24 -89 0 -15 -97 -119
-320 -342 -261 -262 -320 -326 -320 -348 0 -15 3 -27 7 -27 4 0 145 138 314
306 l307 307 9 -54 10 -54 -324 -326 c-263 -265 -323 -330 -323 -352 0 -15 3
-27 7 -27 4 0 154 146 333 325 l325 325 19 -46 19 -46 -352 -352 c-289 -290
-351 -357 -351 -379 0 -23 3 -26 18 -18 9 5 174 167 367 360 l349 350 31 -32
31 -32 -398 -401 c-327 -328 -398 -405 -398 -427 0 -15 3 -27 7 -27 4 0 193
185 419 411 l412 412 34 -23 c18 -13 35 -25 37 -27 3 -2 -201 -210 -452 -461
-377 -378 -457 -463 -457 -485 0 -15 3 -27 7 -27 4 0 222 214 483 475 l476
476 52 -13 53 -12 -536 -536 c-443 -444 -535 -540 -535 -563 0 -15 3 -27 7
-27 4 0 262 254 573 565 l566 565 64 0 65 0 -638 -638 c-534 -534 -637 -642
-637 -665 0 -23 3 -26 18 -18 9 5 312 305 672 665 l655 656 65 0 65 0 -738
-738 c-619 -620 -737 -742 -737 -765 0 -23 3 -26 18 -18 9 5 357 350 772 765
l755 756 65 0 65 0 -838 -838 c-705 -705 -837 -842 -837 -865 0 -23 3 -26 18
-18 9 5 402 395 872 865 l855 856 65 0 65 0 -120 -120 c-116 -116 -121 -120
-162 -120 -57 0 -83 -25 -83 -83 l0 -42 -721 -720 c-396 -396 -725 -728 -730
-737 -8 -15 -5 -18 18 -18 23 0 140 113 730 702 l703 703 0 -65 0 -65 -621
-620 c-341 -341 -625 -628 -630 -637 -8 -15 -5 -18 18 -18 23 0 125 98 630
602 l603 603 0 -65 0 -65 -521 -520 c-286 -286 -525 -528 -530 -538 -8 -14 -5
-17 18 -17 22 0 94 67 413 385 376 376 385 384 382 346 -2 -21 1 -47 6 -58 9
-17 -27 -57 -299 -329 -171 -170 -315 -317 -320 -327 -8 -14 -5 -17 17 -17 23
0 83 56 339 310 l311 310 32 -33 32 -33 -261 -259 c-143 -143 -265 -268 -270
-277 -8 -15 -5 -18 17 -18 22 0 76 48 289 260 l261 260 32 -33 32 -33 -211
-209 c-116 -116 -215 -218 -220 -227 -8 -15 -5 -18 17 -18 22 0 69 41 239 210
l211 210 32 -33 32 -33 -161 -159 c-88 -88 -165 -168 -170 -177 -8 -15 -5 -18
17 -18 21 0 61 34 188 160 l162 160 32 -33 32 -33 -111 -109 c-130 -129 -141
-145 -104 -145 20 0 54 27 138 109 l112 109 33 -30 34 -29 -74 -77 c-66 -69
-71 -77 -50 -80 14 -2 38 8 60 24 20 15 249 241 509 501 l471 475 21 -21 c12
-12 31 -21 43 -21 17 0 -95 -118 -450 -473 -259 -260 -472 -476 -472 -480 0
-4 12 -7 27 -7 22 0 111 83 508 480 l480 480 43 0 c84 0 72 -15 -399 -485
-242 -242 -445 -448 -450 -457 -8 -15 -5 -18 18 -18 22 0 99 72 450 422 l423
422 0 -64 0 -65 -341 -340 c-187 -187 -345 -348 -350 -357 -8 -15 -5 -18 17
-18 23 0 85 57 351 322 l323 322 0 -64 0 -65 -241 -240 c-132 -132 -245 -248
-250 -257 -8 -15 -5 -18 17 -18 22 0 70 43 251 222 l223 222 0 -65 0 -64 -141
-140 c-161 -160 -172 -175 -133 -175 20 0 55 29 150 122 96 94 124 117 124
100 0 -12 9 -31 21 -43 l21 -21 -71 -73 c-39 -40 -71 -76 -71 -79 0 -3 11 -6
25 -6 18 0 50 23 109 80 l83 80 63 0 63 0 -71 -74 c-40 -41 -72 -77 -72 -80 0
-3 11 -6 25 -6 18 0 50 23 109 80 l83 80 63 0 63 0 -71 -74 c-40 -41 -72 -77
-72 -80 0 -3 11 -6 25 -6 18 0 50 23 109 80 77 74 86 80 125 80 55 0 81 26 81
82 l0 43 760 760 c634 635 760 765 760 788 0 15 -3 27 -7 27 -4 0 -346 -339
-760 -752 l-753 -753 0 65 0 65 760 760 c634 635 760 765 760 788 0 15 -3 27
-7 27 -4 0 -346 -339 -760 -752 l-753 -753 0 65 0 65 760 760 c634 635 760
765 760 788 0 15 -3 27 -7 27 -4 0 -294 -286 -643 -635 -617 -617 -635 -634
-632 -596 2 22 -1 48 -7 58 -9 16 76 104 639 668 545 546 650 655 650 678 0
23 -3 26 -17 18 -10 -5 -310 -302 -668 -660 l-650 -651 -32 32 -33 32 700 701
c588 588 700 705 700 728 0 23 -3 26 -17 18 -10 -5 -333 -325 -718 -710 l-700
-701 -32 32 -33 32 750 751 c626 626 750 755 750 778 0 15 -3 27 -7 27 -4 0
-350 -342 -768 -760 l-761 -760 -32 33 -32 33 238 235 c195 194 245 239 284
253 152 55 304 205 379 373 28 63 56 93 365 404 273 274 334 340 334 362 0 15
-3 27 -7 27 -4 0 -149 -142 -323 -315 l-315 -315 3 68 4 67 319 321 c260 261
319 325 319 347 0 15 -3 27 -7 27 -4 0 -148 -140 -320 -312 -201 -200 -314
-307 -317 -297 -2 8 -7 32 -11 53 l-6 39 330 332 c270 270 331 336 331 358 0
15 -3 27 -7 27 -4 0 -157 -149 -340 -332 -183 -183 -334 -330 -335 -327 -2 2
-12 22 -21 43 l-18 39 360 362 c296 296 361 366 361 388 0 15 -3 27 -7 27 -4
0 -172 -165 -374 -366 l-366 -366 -28 37 -28 36 401 403 c330 330 402 407 402
429 0 15 -3 27 -7 27 -4 0 -192 -184 -418 -410 l-410 -409 -35 29 -35 29 453
453 c376 377 452 459 452 481 0 23 -3 26 -17 18 -10 -5 -223 -215 -473 -465
l-454 -455 -36 21 c-19 12 -37 23 -39 25 -3 2 225 234 507 516 427 428 512
517 512 540 0 23 -3 26 -17 18 -10 -5 -251 -243 -537 -529 l-518 -519 -42 15
c-22 9 -43 17 -45 19 -3 2 257 266 577 586 483 484 582 587 582 610 0 15 -3
27 -7 27 -4 0 -280 -272 -613 -605 l-606 -606 -58 7 -58 7 671 671 c563 564
671 676 671 699 0 23 -3 26 -17 18 -10 -5 -328 -321 -708 -700 -379 -380 -695
-691 -701 -691 -7 0 -21 15 -33 33 l-20 32 739 740 c617 618 740 745 740 768
0 15 -3 27 -7 27 -4 0 -344 -336 -754 -746 l-746 -746 -28 37 -28 36 781 782
c653 653 782 787 782 810 0 15 -3 27 -7 27 -4 0 -364 -357 -800 -792 l-793
-793 -32 33 -33 32 778 778 c427 427 777 781 777 785 0 4 -12 7 -27 7 -23 0
-155 -127 -798 -770 l-770 -770 -38 27 -38 27 736 736 c404 404 735 739 735
743 0 4 -12 7 -27 7 -23 0 -149 -121 -759 -731 l-731 -731 -43 22 -43 22 702
702 c385 386 701 705 701 709 0 4 -12 7 -27 7 -23 0 -144 -117 -728 -700
l-701 -700 -34 11 c-19 6 -42 13 -49 15 -10 3 230 250 662 682 372 373 677
681 677 685 0 4 -12 7 -27 7 -23 0 -141 -114 -708 -679 l-680 -679 -59 5 -58
6 666 666 c366 366 666 670 666 674 0 4 -12 7 -27 7 -23 0 -140 -113 -703
-674 l-675 -675 -67 -3 -68 -3 670 670 c369 369 670 674 670 678 0 4 -12 7
-27 7 -23 0 -119 -91 -560 -532 -293 -293 -533 -527 -533 -520 0 7 -12 25 -26
39 l-26 26 78 78 c69 70 83 79 115 79 55 0 89 31 89 83 0 42 2 44 336 377 184
184 340 343 345 353 8 14 5 17 -17 17 -22 0 -68 -41 -236 -207 -114 -114 -208
-200 -208 -191 0 9 -12 26 -27 38 l-27 21 162 163 c89 89 162 165 162 169 0 4
-12 7 -26 7 -21 0 -61 -35 -185 -157 l-159 -156 -40 18 c-22 10 -40 21 -40 24
0 4 52 58 116 121 135 135 146 150 108 150 -20 0 -55 -29 -154 -125 l-127
-126 -47 18 -46 19 91 89 c109 109 120 125 84 125 -20 0 -52 -25 -128 -99
l-103 -100 -44 11 c-25 6 -47 13 -49 15 -3 1 30 39 72 82 42 43 77 81 77 85 0
3 -11 6 -25 6 -18 0 -50 -23 -110 -81 l-84 -81 -56 7 -56 7 66 68 c36 38 65
71 65 74 0 3 -11 6 -25 6 -17 0 -48 -22 -100 -71 l-75 -72 -66 -3 -66 -2 66
68 c36 37 66 71 66 74 0 3 -11 6 -25 6 -18 0 -49 -22 -104 -75 -78 -75 -80
-76 -155 -89 l-77 -13 81 82 c44 45 80 85 80 89 0 3 -12 6 -26 6 -19 0 -53
-27 -133 -105 -59 -58 -113 -105 -120 -105 -6 0 -50 -15 -97 -34 l-86 -34 131
132 c72 73 131 136 131 139 0 4 -12 7 -27 7 -23 0 -198 -170 -1081 -1052z
m1506 734 c20 -6 11 -18 -95 -123 -117 -115 -119 -117 -182 -128 -34 -7 -70
-15 -80 -18 -22 -8 239 256 264 267 23 10 61 11 93 2z m166 -17 l39 -6 -104
-105 -104 -104 -65 0 -65 0 115 115 c70 70 121 113 130 111 8 -2 33 -7 54 -11z
m104 -142 c-56 -56 -99 -91 -108 -89 -8 2 -33 7 -54 11 l-39 6 97 98 98 98 49
-15 50 -16 -93 -93z m208 47 l28 -11 -85 -85 c-89 -89 -88 -89 -155 -63 l-28
10 89 89 c72 73 92 87 106 79 10 -5 30 -14 45 -19z m116 -61 l41 -21 -79 -79
-80 -80 -39 17 c-22 9 -42 18 -44 20 -4 4 149 164 157 164 1 0 21 -9 44 -21z
m-687 -349 c-113 -113 -122 -120 -187 -140 -78 -24 -101 -49 -97 -105 3 -34
-5 -44 -291 -331 l-295 -295 -110 -54 c-60 -29 -135 -75 -165 -101 -30 -26
213 221 540 549 l595 597 65 0 65 0 -120 -120z m277 94 c6 -4 -34 -51 -88
-105 l-99 -99 -65 0 -65 0 110 111 110 110 43 -5 c24 -3 48 -9 54 -12z m125
-39 l37 -16 -85 -85 -84 -85 -45 6 c-25 4 -49 9 -54 12 -10 7 164 183 182 183
7 0 29 -7 49 -15z m-309 -335 c23 0 -14 -41 -258 -285 -268 -268 -287 -285
-320 -284 -95 3 -102 -8 197 291 267 266 300 293 341 282 8 -2 26 -4 40 -4z
m-456 -283 l-273 -273 -75 -10 -74 -9 271 271 c221 221 275 270 293 267 12 -3
45 2 72 10 27 9 51 16 54 16 3 1 -118 -122 -268 -272z m617 251 c24 -9 21 -13
-83 -117 -91 -91 -114 -109 -154 -120 -26 -6 -72 -23 -102 -37 -55 -25 -54
-24 105 135 171 172 161 166 234 139z m-724 -1158 l-800 -800 -65 0 -65 0 795
795 794 794 56 4 c30 2 62 4 70 5 8 1 -345 -358 -785 -798z m964 774 c3 -3
-348 -358 -779 -789 l-785 -785 -65 0 -65 0 795 796 795 795 50 -6 c27 -3 52
-8 54 -11z m-1169 -779 c-426 -426 -781 -775 -788 -775 -7 0 -29 7 -49 15
l-37 16 704 705 c388 388 724 717 748 731 36 21 176 82 192 83 3 0 -344 -349
-770 -775z m1320 728 c2 -2 -338 -346 -755 -763 l-760 -760 -65 0 -65 0 779
779 779 779 41 -15 c23 -9 43 -18 46 -20z m104 -57 l29 -18 -724 -724 -724
-724 -65 0 -65 0 750 750 c446 447 753 746 760 741 5 -4 23 -15 39 -25z m108
-83 l29 -27 -678 -678 -678 -678 -65 0 -65 0 705 705 c388 388 709 705 714
705 6 0 23 -12 38 -27z m92 -105 l26 -33 -623 -622 -622 -623 -65 0 -65 0 655
655 c360 360 658 655 662 655 3 0 18 -15 32 -32z m-2089 -548 c-291 -291 -533
-530 -536 -530 -4 0 -12 21 -19 46 l-13 46 194 194 c107 107 199 194 206 194
7 0 24 17 37 38 40 62 518 530 546 535 14 2 45 5 70 6 l45 1 -530 -530z m695
510 c8 0 -246 -261 -565 -580 -557 -557 -580 -579 -598 -562 -52 47 -80 14
513 607 l552 552 41 -8 c23 -5 49 -8 57 -9z m-420 -33 c0 -1 -84 -85 -186
-187 l-186 -185 38 75 c48 93 171 220 259 267 54 29 75 38 75 30z m1899 -69
c9 -23 -29 -63 -547 -581 l-557 -557 -65 0 -65 0 599 599 c650 650 607 613
635 539z m-2309 -29 c-27 -34 -65 -96 -85 -138 -20 -42 -42 -87 -48 -101 -10
-19 -28 -29 -80 -42 -38 -10 -83 -25 -100 -34 -19 -10 45 62 163 180 107 108
196 196 197 196 2 0 -19 -28 -47 -61z m1950 -564 l-545 -545 -65 0 -65 0 540
540 c581 582 536 543 645 548 33 2 6 -27 -510 -543z m704 528 c15 -4 -91 -115
-515 -539 l-534 -534 -65 0 -65 0 545 545 c545 546 545 546 580 540 19 -3 43
-9 54 -12z m118 -44 l41 -21 -504 -504 -504 -504 -65 0 -65 0 525 525 c289
289 526 525 528 525 1 0 21 -9 44 -21z m-309 -571 l-458 -458 -65 0 -65 0 490
490 489 490 33 -32 34 -32 -458 -458z m537 348 c0 -6 -179 -190 -397 -408
l-398 -398 -65 0 -65 0 439 439 440 440 23 -32 c13 -17 23 -36 23 -41z m50
-110 l12 -39 -328 -328 -329 -329 -65 0 -65 0 375 375 c206 206 377 371 381
367 4 -4 12 -24 19 -46z m-3325 -176 c-121 -122 -151 -147 -153 -130 -5 32 51
140 94 183 38 38 95 73 144 88 71 21 62 6 -85 -141z m3123 -277 c-123 -123
-232 -225 -243 -228 -11 -2 -45 -6 -75 -9 l-54 -6 294 295 295 295 3 -62 3
-62 -223 -223z m-398 -598 l-204 -205 -33 32 -33 32 167 168 167 167 60 4 c34
2 65 4 71 5 5 1 -82 -90 -195 -203z m-1725 75 l-120 -120 -65 0 -65 0 120 120
120 120 65 0 65 0 -120 -120z m200 0 l-120 -120 -65 0 -65 0 120 120 120 120
65 0 65 0 -120 -120z m160 -40 c-156 -156 -160 -159 -167 -133 -4 16 -15 34
-25 41 -16 11 -5 25 102 132 l120 120 65 0 65 0 -160 -160z m100 -100 l-260
-260 -3 62 -3 62 198 198 198 198 65 0 65 0 -260 -260z m100 -100 l-360 -360
-3 62 -3 62 298 298 298 298 65 0 65 0 -360 -360z m100 -100 l-460 -460 -3 62
-3 62 398 398 398 398 65 0 65 0 -460 -460z m140 -60 l-520 -520 -42 0 c-38 0
-43 3 -43 22 0 17 136 159 497 520 l498 498 65 0 65 0 -520 -520z m175 -20
l-539 -541 -21 21 c-11 11 -30 20 -42 20 -17 0 106 129 497 520 l520 520 62 0
62 0 -539 -540z m595 390 l-149 -150 -31 28 c-16 15 -32 28 -34 30 -3 1 49 57
114 122 l120 120 65 0 65 0 -150 -150z m-1750 -350 l-100 -101 -3 62 c-3 60
-2 63 35 101 35 36 40 38 102 38 l66 0 -100 -100z m215 57 c0 -41 -3 -46 -160
-202 l-160 -160 0 65 0 65 137 137 c155 155 183 170 183 95z m1241 -200 l-119
-119 -21 21 c-11 11 -31 21 -43 21 -18 0 5 27 107 130 l129 130 33 -32 33 -32
-119 -119z m-1400 -201 l-161 -161 0 65 0 65 158 158 157 157 3 -62 3 -62
-160 -160z m1452 52 l-168 -168 -3 62 -3 62 138 138 137 138 33 -32 33 -32
-167 -168z m216 71 c-51 -7 -69 -29 -69 -84 0 -39 -6 -46 -160 -200 l-160
-160 0 65 0 65 187 187 187 188 29 -28 28 -27 -42 -6z m-1696 -351 l-187 -188
-29 28 -28 27 42 6 c51 7 69 29 69 83 0 39 6 47 158 199 l157 157 3 -62 3 -62
-188 -188z m-329 71 c-34 -35 -41 -38 -105 -41 l-69 -3 103 103 102 103 3 -62
c3 -60 2 -64 -34 -100z m2226 26 l-105 -106 -3 62 c-3 60 -2 64 34 100 35 35
42 38 103 42 36 2 68 4 71 5 2 1 -43 -45 -100 -103z m-429 -229 l-161 -161 0
65 0 65 158 158 157 157 3 -62 3 -62 -160 -160z m-1418 -18 l-137 -138 -33 32
-33 32 167 168 168 168 3 -62 3 -62 -138 -138z m1440 -160 c-155 -155 -183
-170 -183 -96 0 42 4 47 158 201 l157 157 3 -62 3 -62 -138 -138z m-1283 202
c11 -11 30 -20 42 -20 18 0 -5 -27 -107 -130 l-129 -130 -33 32 -33 32 117
118 c65 65 119 118 120 118 2 0 12 -9 23 -20z m1383 -302 c-35 -36 -40 -38
-102 -38 l-66 0 100 100 100 101 3 -62 c3 -60 2 -63 -35 -101z"/>
<path d="M4296 850 c-449 -448 -822 -823 -827 -832 -8 -15 -5 -18 18 -18 23 0
152 124 811 783 431 430 792 794 803 810 11 15 19 37 17 50 -4 18 -141 -114
-822 -793z"/>
<path d="M4396 750 c-394 -393 -722 -723 -727 -732 -8 -15 -5 -18 18 -18 23 0
137 110 711 683 376 375 692 694 703 710 11 15 19 37 17 50 -4 18 -124 -97
-722 -693z"/>
<path d="M4496 650 c-339 -338 -622 -623 -627 -632 -8 -15 -5 -18 18 -18 23 0
123 95 611 583 321 320 592 594 603 610 11 15 19 37 17 50 -4 18 -106 -80
-622 -593z"/>
<path d="M4596 550 c-284 -283 -522 -523 -527 -533 -8 -14 -5 -17 18 -17 23 0
108 81 511 483 266 265 492 494 503 510 11 15 19 37 17 50 -4 18 -89 -62 -522
-493z"/>
<path d="M4696 450 c-229 -228 -422 -423 -427 -432 -8 -15 -5 -18 18 -18 22 0
93 66 411 383 211 210 392 394 403 410 11 15 19 37 17 50 -4 18 -72 -45 -422
-393z"/>
<path d="M4796 350 c-174 -173 -322 -323 -327 -332 -8 -15 -5 -18 17 -18 23 0
80 52 312 282 156 156 293 295 303 311 11 15 19 37 17 50 -4 18 -54 -28 -322
-293z"/>
<path d="M4896 250 c-119 -118 -222 -223 -227 -232 -8 -15 -5 -18 17 -18 21 0
65 37 211 183 205 202 226 227 221 260 -3 19 -37 -11 -222 -193z"/>
<path d="M4996 150 c-136 -133 -149 -150 -111 -150 18 0 49 23 111 82 102 98
127 130 122 161 -3 19 -19 7 -122 -93z"/>
</g>
</svg>
