<?xml version="1.0" standalone="no"?>
<!DOCTYPE svg PUBLIC "-//W3C//DTD SVG 20010904//EN"
 "http://www.w3.org/TR/2001/REC-SVG-20010904/DTD/svg10.dtd">
<svg version="1.0" xmlns="http://www.w3.org/2000/svg"
 width="512.000000pt" height="512.000000pt" viewBox="0 0 512.000000 512.000000"
 preserveAspectRatio="xMidYMid meet">
<metadata>
Created by potrace 1.15, written by Peter Selinger 2001-2017
</metadata>
<g transform="translate(0.000000,512.000000) scale(0.100000,-0.100000)"
fill="#000000" stroke="none">
<path d="M203 4958 c-174 -172 -196 -198 -191 -231 3 -19 32 5 192 163 103
102 192 193 197 203 8 14 5 17 -17 17 -21 0 -60 -33 -181 -152z"/>
<path d="M303 4858 c-140 -139 -264 -265 -275 -281 -10 -15 -18 -37 -16 -50 3
-18 49 23 292 263 158 157 292 293 297 303 8 14 5 17 -17 17 -22 0 -75 -47
-281 -252z"/>
<path d="M402 4758 c-194 -194 -362 -365 -373 -381 -11 -15 -19 -37 -17 -50 4
-18 67 40 392 363 213 212 392 393 397 403 8 14 5 17 -18 17 -22 0 -89 -62
-381 -352z"/>
<path d="M502 4658 c-249 -249 -462 -465 -473 -481 -11 -15 -19 -37 -17 -50 4
-18 84 57 492 463 268 267 492 493 497 503 8 14 5 17 -18 17 -22 0 -104 -76
-481 -452z"/>
<path d="M602 4558 c-304 -304 -562 -565 -573 -581 -11 -15 -19 -37 -17 -50 4
-18 101 75 592 563 323 322 592 593 597 603 8 14 5 17 -18 17 -23 0 -118 -91
-581 -552z"/>
<path d="M702 4458 c-359 -359 -662 -665 -673 -681 -11 -15 -19 -37 -17 -50 4
-18 118 92 692 663 378 377 692 693 697 703 8 14 5 17 -18 17 -23 0 -133 -106
-681 -652z"/>
<path d="M802 4358 c-414 -414 -762 -765 -773 -781 -11 -15 -19 -37 -17 -50 4
-18 136 109 792 763 433 432 792 793 797 803 8 14 5 17 -18 17 -23 0 -148
-120 -781 -752z"/>
<path d="M902 4258 c-469 -469 -862 -865 -873 -881 -11 -15 -19 -37 -17 -50 4
-18 153 126 892 863 488 487 892 893 897 903 8 14 5 17 -18 17 -23 0 -162
-135 -881 -852z"/>
<path d="M1002 4158 c-524 -524 -962 -965 -973 -981 -11 -15 -19 -37 -17 -50
4 -18 149 123 869 841 l866 863 -33 -97 -33 -97 -835 -836 c-699 -699 -836
-841 -836 -864 0 -15 3 -27 7 -27 4 0 376 368 825 817 450 450 818 811 818
802 0 -9 -5 -42 -11 -75 l-12 -59 -813 -815 c-680 -681 -814 -820 -814 -843 0
-15 3 -27 7 -27 4 0 368 360 809 801 l801 800 -10 -73 -9 -73 -799 -800 c-667
-669 -799 -805 -799 -828 0 -15 3 -27 7 -27 4 0 295 287 646 638 532 532 634
630 618 592 -11 -25 -25 -68 -31 -95 -11 -49 -28 -67 -625 -665 -511 -512
-615 -620 -615 -643 0 -15 3 -27 7 -27 4 0 279 271 610 602 l603 603 0 -65 0
-65 -610 -610 c-507 -508 -610 -615 -610 -638 0 -15 3 -27 7 -27 4 0 279 271
610 602 l603 603 0 -65 0 -65 -610 -610 c-507 -508 -610 -615 -610 -638 0 -15
3 -27 7 -27 4 0 279 271 610 602 l603 603 0 -65 0 -65 -610 -610 c-507 -508
-610 -615 -610 -638 0 -15 3 -27 7 -27 4 0 279 271 610 602 l603 603 0 -65 0
-65 -610 -610 c-507 -508 -610 -615 -610 -638 0 -15 3 -27 7 -27 4 0 279 271
610 602 l603 603 0 -65 0 -65 -610 -610 c-507 -508 -610 -615 -610 -638 0 -15
3 -27 7 -27 4 0 279 271 610 602 l603 603 0 -65 0 -65 -610 -610 c-507 -508
-610 -615 -610 -638 0 -15 3 -27 7 -27 4 0 279 271 610 602 l603 603 0 -65 0
-65 -610 -610 c-507 -508 -610 -615 -610 -638 0 -15 3 -27 7 -27 4 0 279 271
610 602 l603 603 0 -65 0 -65 -610 -610 c-507 -508 -610 -615 -610 -638 0 -15
3 -27 7 -27 4 0 279 271 610 602 l603 603 0 -65 0 -65 -610 -610 c-507 -508
-610 -615 -610 -638 0 -15 3 -27 7 -27 4 0 278 270 609 601 l601 601 6 -59 6
-58 -614 -615 c-511 -512 -615 -620 -615 -643 0 -15 3 -27 7 -27 4 0 283 275
619 611 l611 610 18 -46 17 -47 -636 -637 c-529 -530 -636 -641 -636 -664 0
-15 3 -27 7 -27 4 0 296 288 649 641 l640 640 26 -39 26 -39 -640 -639 c-351
-351 -644 -647 -649 -656 -8 -15 -5 -18 18 -18 23 0 130 103 665 637 l637 636
36 -28 37 -28 -601 -601 c-331 -331 -601 -605 -601 -609 0 -4 12 -7 27 -7 23
0 128 101 623 594 l595 595 42 -22 43 -22 -556 -555 c-305 -305 -560 -563
-565 -573 -8 -14 -5 -17 18 -17 23 0 116 89 569 541 584 584 553 558 554 459
0 -33 -28 -63 -466 -500 -256 -256 -470 -473 -475 -482 -8 -15 -5 -18 18 -18
22 0 103 76 479 452 l453 451 6 -39 c3 -21 8 -46 9 -55 2 -11 -134 -154 -376
-395 -209 -209 -384 -387 -389 -396 -8 -15 -5 -18 18 -18 22 0 91 64 394 366
l367 367 7 -58 8 -57 -302 -302 c-165 -166 -301 -305 -301 -309 0 -4 12 -7 27
-7 21 0 80 53 309 281 l282 281 12 -52 12 -52 -221 -222 c-121 -122 -221 -225
-221 -229 0 -4 12 -7 26 -7 22 0 69 41 230 202 l203 201 20 -44 19 -44 -149
-151 c-82 -83 -149 -154 -149 -157 0 -4 12 -7 26 -7 20 0 58 31 163 134 l136
135 20 -23 c12 -13 27 -25 35 -28 11 -4 -14 -36 -82 -105 -54 -55 -98 -103
-98 -107 0 -3 11 -6 26 -6 18 0 51 25 123 95 l98 95 47 -16 47 -16 -70 -73
c-39 -40 -71 -76 -71 -79 0 -3 11 -6 25 -6 17 0 48 22 100 71 69 66 77 70 107
64 74 -15 73 -12 19 -70 -28 -30 -51 -56 -51 -59 0 -3 11 -6 24 -6 16 0 46 19
83 54 l58 53 58 -5 57 -4 -40 -44 c-22 -24 -40 -46 -40 -49 0 -3 11 -5 24 -5
14 0 44 18 74 45 48 43 53 45 112 45 l62 0 -36 -40 c-20 -22 -36 -42 -36 -45
0 -3 11 -5 24 -5 14 0 44 18 73 45 46 40 56 45 119 51 l69 7 -42 -46 c-24 -26
-43 -49 -43 -52 0 -3 11 -5 25 -5 16 0 46 20 87 59 52 48 72 60 118 70 30 7
66 15 80 18 20 5 12 -7 -42 -65 -38 -38 -68 -73 -68 -76 0 -3 11 -6 26 -6 18
0 51 25 122 94 62 59 111 98 136 107 50 18 88 56 116 116 18 38 219 244 941
968 769 770 919 925 919 948 0 15 -3 27 -7 27 -4 0 -410 -402 -902 -892 -491
-491 -891 -886 -888 -877 3 10 11 46 18 80 l11 64 884 885 c739 741 884 890
884 913 0 15 -3 27 -7 27 -4 0 -399 -390 -877 -867 -478 -478 -866 -861 -863
-852 3 9 8 42 12 75 l7 59 864 865 c722 724 864 870 864 893 0 15 -3 27 -7 27
-4 0 -390 -381 -856 -847 l-849 -848 6 70 c6 61 11 74 39 103 17 18 50 43 72
56 44 26 140 123 170 171 10 17 335 347 722 735 585 588 703 710 703 733 0 15
-3 27 -7 27 -4 0 -308 -300 -675 -667 l-668 -667 6 69 6 70 669 670 c557 558
669 675 669 698 0 15 -3 27 -7 27 -4 0 -306 -298 -670 -662 l-663 -663 0 65 0
65 670 670 c558 558 670 675 670 698 0 15 -3 27 -7 27 -4 0 -306 -298 -670
-662 l-663 -663 0 65 0 65 670 670 c558 558 670 675 670 698 0 15 -3 27 -7 27
-4 0 -306 -298 -670 -662 l-663 -663 0 65 0 65 670 670 c558 558 670 675 670
698 0 15 -3 27 -7 27 -4 0 -306 -298 -670 -662 l-663 -663 0 65 0 64 655 656
c360 360 662 665 671 678 8 12 14 32 12 45 -4 18 -103 -76 -591 -563 l-587
-585 0 65 0 65 590 590 c490 491 590 595 590 618 0 15 -3 27 -7 27 -4 0 -270
-262 -590 -582 l-583 -583 0 65 0 65 590 590 c494 494 590 595 590 618 0 23
-3 26 -17 18 -10 -5 -274 -266 -587 -580 l-569 -569 -19 24 c-11 13 -29 24
-41 24 -16 0 150 172 606 628 525 526 627 632 627 655 0 23 -3 26 -17 18 -10
-5 -308 -300 -663 -655 -355 -355 -651 -646 -657 -646 -9 0 -13 17 -13 52 l0
53 675 675 c562 563 675 680 675 703 0 15 -3 27 -7 27 -4 0 -308 -300 -675
-667 l-668 -668 0 65 0 65 675 675 c562 563 675 680 675 703 0 15 -3 27 -7 27
-4 0 -308 -300 -674 -666 l-666 -666 -6 58 -5 59 679 680 c565 567 679 685
679 708 0 15 -3 27 -7 27 -4 0 -314 -306 -689 -681 l-681 -681 -18 47 -18 47
652 652 c358 358 651 655 651 659 0 4 -12 7 -27 7 -23 0 -135 -107 -666 -637
l-638 -638 -29 35 -29 35 594 595 c327 328 595 599 595 603 0 4 -12 7 -27 7
-23 0 -127 -99 -613 -585 l-585 -584 -37 28 -37 27 540 540 c297 296 545 547
550 557 8 14 5 17 -18 17 -23 0 -117 -90 -573 -543 -532 -531 -546 -544 -572
-534 -64 25 -59 31 463 552 269 270 495 498 500 508 8 14 5 17 -18 17 -23 0
-107 -80 -504 -476 l-476 -476 -6 59 -6 58 409 410 c226 226 410 414 410 418
0 4 -12 7 -27 7 -22 0 -96 -69 -414 -386 l-387 -387 -7 58 -8 57 322 322 c176
177 321 325 321 329 0 4 -12 7 -27 7 -22 0 -83 -56 -328 -300 l-302 -301 -9
55 -10 55 228 228 c126 125 234 236 239 246 8 14 5 17 -17 17 -22 0 -70 -42
-245 -217 -139 -137 -220 -211 -223 -202 -2 8 -9 30 -15 48 l-11 35 160 161
c88 89 160 164 160 168 0 4 -12 7 -26 7 -20 0 -59 -32 -169 -141 l-142 -140
-22 36 c-11 20 -21 39 -21 43 0 4 36 43 81 87 99 98 110 115 74 115 -19 0 -50
-23 -113 -84 l-87 -83 -44 18 -44 19 57 59 c31 33 56 62 56 65 0 3 -11 6 -24
6 -16 0 -46 -20 -85 -56 l-61 -56 -49 13 -50 13 34 38 c19 21 35 40 35 43 0
18 -53 -1 -88 -31 -39 -33 -46 -35 -85 -29 -57 10 -59 12 -41 41 16 23 15 24
-7 24 -13 0 -37 -10 -52 -23 -23 -18 -38 -21 -87 -19 -55 4 -59 5 -50 23 9 16
7 19 -12 19 -13 0 -34 -9 -48 -20 -19 -15 -41 -20 -88 -20 -60 0 -62 1 -52 20
9 17 8 20 -11 20 -12 0 -36 -11 -53 -24 -17 -13 -53 -26 -81 -30 -27 -4 -61
-10 -75 -13 l-25 -6 21 24 c36 40 37 49 11 49 -14 0 -46 -20 -81 -50 -31 -27
-63 -50 -71 -50 -7 0 -45 -11 -85 -24 l-72 -25 66 69 c36 37 66 71 66 74 0 3
-12 6 -27 6 -23 0 -183 -155 -981 -952z m678 -523 c-149 -149 -155 -154 -158
-126 -7 62 17 113 86 184 71 72 117 96 187 97 l40 0 -155 -155z m100 -100
l-255 -255 -3 62 -3 62 193 193 193 193 65 0 65 0 -255 -255z m100 -100 l-355
-355 -3 62 -3 62 293 293 293 293 65 0 65 0 -355 -355z m100 -100 l-455 -455
-3 62 -3 62 393 393 393 393 65 0 65 0 -455 -455z m100 -100 l-555 -555 -3 62
-3 62 493 493 493 493 65 0 65 0 -555 -555z m445 245 c-288 -288 -312 -310
-345 -310 -19 0 -53 -5 -74 -10 -37 -8 -16 15 280 311 l319 319 65 0 65 0
-310 -310z m174 -26 l-335 -335 -40 18 c-21 9 -41 19 -44 21 -2 1 137 144 310
317 l315 315 65 0 65 0 -336 -336z m152 -48 l-384 -384 -32 31 -31 32 351 353
350 352 65 0 65 0 -384 -384z m489 349 c17 -9 30 -19 30 -23 0 -4 -125 -131
-277 -283 -265 -263 -280 -277 -321 -282 -24 -3 -67 -17 -95 -31 -44 -22 -9
16 279 305 181 181 335 329 342 329 7 0 26 -7 42 -15z m99 -94 c12 -16 21 -33
21 -38 0 -4 -108 -116 -239 -247 -234 -234 -240 -239 -268 -229 -15 6 -37 14
-47 18 -17 5 24 50 239 265 143 143 263 260 267 260 4 0 16 -13 27 -29z m51
-171 l0 -45 -192 -192 -192 -192 -37 27 -38 27 221 222 c149 149 225 218 230
210 4 -7 8 -32 8 -57z m-151 -396 l-153 -153 -23 41 -24 42 173 173 173 173 3
-62 3 -62 -152 -152z m4 -196 l-149 -149 4 68 4 68 141 143 142 142 3 -62 3
-62 -148 -148z m-580 -780 l-728 -728 -65 0 -65 0 281 281 c261 261 283 280
302 268 18 -12 30 -4 134 95 212 202 421 434 478 531 13 22 105 122 204 223
l181 183 3 -63 3 -62 -728 -728z m-1097 503 l-146 -146 0 65 0 65 143 143 142
142 3 -62 3 -62 -145 -145z m1197 -603 l-628 -628 -65 0 -65 0 690 690 690
690 3 -62 3 -62 -628 -628z m-1166 434 l-172 -172 -3 62 -3 62 153 153 153
153 22 -43 22 -42 -172 -173z m226 90 l25 -39 -214 -214 -214 -214 0 65 0 65
187 187 c103 104 188 188 189 188 1 0 13 -17 27 -38z m1040 -624 l-528 -528
-65 0 -65 0 590 590 590 590 3 -62 3 -62 -528 -528z m-951 508 l27 -32 -260
-260 -259 -259 0 65 0 65 227 227 c125 126 230 228 233 227 3 0 17 -15 32 -33z
m1051 -608 l-428 -428 -65 0 -65 0 490 490 490 490 3 -62 3 -62 -428 -428z
m-958 502 l29 -31 -304 -304 -305 -305 -3 62 -3 62 273 273 c150 150 275 273
279 273 3 0 18 -14 34 -30z m100 -100 l29 -31 -334 -334 -335 -335 -17 33 c-9
17 -17 39 -18 47 0 13 627 650 641 650 3 0 18 -14 34 -30z m958 -502 l-328
-328 -65 0 -65 0 390 390 390 390 3 -62 3 -62 -328 -328z m-858 402 l29 -31
-329 -329 c-182 -182 -334 -330 -340 -330 -5 1 -23 12 -40 25 l-30 25 335 335
c184 184 337 335 341 335 3 0 18 -14 34 -30z m100 -100 l29 -31 -299 -299
c-317 -318 -306 -309 -385 -294 l-32 7 323 323 c178 178 326 324 330 324 3 0
18 -14 34 -30z m858 -402 l-228 -228 -65 0 -65 0 290 290 290 290 3 -62 3 -62
-228 -228z m224 86 l-5 -67 -123 -123 -124 -124 -65 0 -65 0 190 190 c104 105
192 190 194 190 2 0 1 -30 -2 -66z"/>
<path d="M4096 1050 c-559 -558 -1022 -1023 -1027 -1033 -8 -14 -5 -17 18 -17
23 0 181 153 1011 983 541 540 992 994 1003 1010 11 15 19 37 17 50 -4 18
-175 -149 -1022 -993z"/>
<path d="M4196 950 c-504 -503 -922 -923 -927 -932 -8 -15 -5 -18 18 -18 23 0
167 139 911 882 486 486 892 895 903 911 11 15 19 37 17 50 -4 18 -158 -132
-922 -893z"/>
<path d="M4296 850 c-449 -448 -822 -823 -827 -832 -8 -15 -5 -18 18 -18 23 0
152 124 811 783 431 430 792 794 803 810 11 15 19 37 17 50 -4 18 -141 -114
-822 -793z"/>
<path d="M4396 750 c-394 -393 -722 -723 -727 -732 -8 -15 -5 -18 18 -18 23 0
137 110 711 683 376 375 692 694 703 710 11 15 19 37 17 50 -4 18 -124 -97
-722 -693z"/>
<path d="M4496 650 c-339 -338 -622 -623 -627 -632 -8 -15 -5 -18 18 -18 23 0
123 95 611 583 321 320 592 594 603 610 11 15 19 37 17 50 -4 18 -106 -80
-622 -593z"/>
<path d="M4596 550 c-284 -283 -522 -523 -527 -533 -8 -14 -5 -17 18 -17 23 0
108 81 511 483 266 265 492 494 503 510 11 15 19 37 17 50 -4 18 -89 -62 -522
-493z"/>
<path d="M4696 450 c-229 -228 -422 -423 -427 -432 -8 -15 -5 -18 18 -18 22 0
93 66 411 383 211 210 392 394 403 410 11 15 19 37 17 50 -4 18 -72 -45 -422
-393z"/>
<path d="M4796 350 c-174 -173 -322 -323 -327 -332 -8 -15 -5 -18 17 -18 23 0
80 52 312 282 156 156 293 295 303 311 11 15 19 37 17 50 -4 18 -54 -28 -322
-293z"/>
<path d="M4896 250 c-119 -118 -222 -223 -227 -232 -8 -15 -5 -18 17 -18 21 0
65 37 211 183 205 202 226 227 221 260 -3 19 -37 -11 -222 -193z"/>
<path d="M4996 150 c-136 -133 -149 -150 -111 -150 18 0 49 23 111 82 102 98
127 130 122 161 -3 19 -19 7 -122 -93z"/>
</g>
</svg>
