<svg xmlns="http://www.w3.org/2000/svg" xmlns:xlink="http://www.w3.org/1999/xlink" preserveAspectRatio="xMidYMid" width="1250" height="263" viewBox="0 0 1250 263">
  <defs>
    <style>
      .cls-1 {
        fill: #ffffff;
      }

      .cls-1, .cls-2 {
        fill-rule: evenodd;
      }

      .cls-2 {
        fill: #ffffff;
      }
    </style>
  </defs>
  <g>
    <path d="M823.714,114.953 L813.640,142.585 C813.496,143.016 813.352,143.448 813.064,143.880 C811.337,147.622 807.451,150.932 804.717,150.932 L789.462,150.932 L802.558,114.953 L773.631,35.801 L788.886,35.801 C791.908,35.801 796.514,39.830 797.809,44.004 L813.064,86.027 L828.463,44.004 C829.902,39.830 834.363,35.801 837.385,35.801 L852.640,35.801 L823.714,114.953 ZM743.702,42.996 C736.506,43.572 728.591,71.779 721.539,71.779 C714.344,71.779 706.428,43.428 699.233,42.996 L699.233,114.953 L677.502,114.953 L677.502,21.409 C677.502,17.811 681.243,14.213 684.841,14.213 L699.233,14.213 C713.624,14.501 714.344,50.192 721.539,50.192 C728.735,50.192 729.455,14.213 743.990,14.213 L758.238,14.213 C761.835,14.213 765.577,17.811 765.577,21.409 L765.577,114.953 L743.846,114.953 C743.846,114.953 743.702,72.786 743.702,42.996 ZM630.159,99.842 C636.779,99.842 642.679,97.396 645.990,90.776 C651.746,79.406 669.304,88.329 662.684,101.713 C659.374,108.477 649.012,113.370 644.550,114.953 C640.665,116.392 635.340,117.112 630.159,117.112 C613.177,117.112 594.180,105.599 594.180,75.377 C594.180,45.155 613.177,33.642 630.159,33.642 C647.141,33.642 666.138,45.155 666.138,75.377 L666.138,77.392 L614.328,77.392 C614.760,94.661 621.092,99.842 630.159,99.842 ZM644.982,63.864 C642.823,53.934 638.650,49.472 630.159,49.472 C621.668,49.472 617.351,53.934 615.192,63.864 L644.982,63.864 ZM566.121,111.068 C561.228,113.946 554.032,117.112 549.427,117.112 C530.430,117.112 517.766,99.842 517.766,73.218 C517.766,46.594 533.309,33.642 552.306,33.642 C556.911,33.642 561.228,34.074 565.258,34.793 L565.258,14.213 C565.258,10.616 568.856,7.018 572.453,7.018 L585.406,7.018 L585.406,40.838 L585.406,43.428 L585.406,114.953 C576.051,114.953 568.568,114.953 566.121,111.068 ZM565.258,51.631 C562.523,50.912 556.191,49.185 552.306,49.185 C543.527,49.185 537.914,56.956 537.914,73.218 C537.914,89.480 540.648,100.850 549.427,100.850 C554.032,100.850 560.796,97.252 565.258,95.093 L565.258,51.631 ZM474.740,117.112 C454.016,117.112 437.322,102.001 437.322,75.377 C437.322,48.753 454.016,33.642 474.740,33.642 C495.464,33.642 512.158,48.753 512.158,75.377 C512.158,102.001 495.464,117.112 474.740,117.112 ZM474.740,50.912 C464.378,50.912 457.470,57.388 457.470,75.377 C457.470,93.366 464.378,99.842 474.740,99.842 C485.102,99.842 492.010,93.366 492.010,75.377 C492.010,57.388 485.102,50.912 474.740,50.912 ZM397.463,117.112 C373.573,117.112 351.411,100.562 351.411,64.583 C351.411,28.605 373.573,12.055 397.463,12.055 C409.552,12.055 421.353,15.221 429.124,21.697 L429.124,35.081 C429.124,38.679 425.527,42.277 421.929,42.277 C421.929,42.277 418.043,42.565 414.733,38.679 C410.128,33.210 407.681,30.764 397.463,30.764 C385.518,30.764 372.998,42.996 372.998,64.583 C372.998,86.170 385.518,98.403 397.463,98.403 C407.537,98.403 409.840,95.525 414.733,89.768 C417.755,86.170 421.929,86.458 421.929,86.458 C425.527,86.458 429.124,89.480 429.124,93.078 L429.124,107.182 C421.209,113.802 409.408,117.112 397.463,117.112 Z" class="cls-1"/>
    <path d="M1192.114,77.392 C1192.546,94.661 1198.878,99.842 1207.945,99.842 C1214.565,99.842 1220.465,97.396 1223.775,90.776 C1229.532,79.406 1247.089,88.329 1240.469,101.713 C1237.159,108.477 1226.798,113.370 1222.336,114.953 C1218.451,116.392 1213.126,117.112 1207.945,117.112 C1190.963,117.112 1171.966,105.599 1171.966,75.377 C1171.966,45.155 1190.963,33.642 1207.945,33.642 C1224.927,33.642 1243.923,45.155 1243.923,75.377 L1243.923,77.392 L1192.114,77.392 ZM1207.945,49.472 C1199.454,49.472 1195.136,53.934 1192.978,63.864 L1222.768,63.864 C1220.609,53.934 1216.436,49.472 1207.945,49.472 ZM1178.433,173.470 C1179.116,173.470 1179.651,173.686 1180.035,174.117 C1180.420,174.549 1180.708,175.067 1180.901,175.672 C1181.093,176.277 1181.210,176.913 1181.253,177.582 C1181.295,178.252 1181.317,178.823 1181.317,179.298 C1181.317,180.982 1181.199,182.688 1180.965,184.414 C1180.729,186.141 1180.377,187.825 1179.907,189.465 C1180.633,189.379 1181.360,189.271 1182.087,189.141 C1182.813,189.012 1183.539,188.947 1184.266,188.947 C1184.864,188.947 1185.164,189.228 1185.164,189.789 C1185.164,190.135 1185.089,190.383 1184.939,190.534 C1184.789,190.685 1184.587,190.847 1184.330,191.019 C1184.159,191.106 1183.839,191.225 1183.369,191.376 C1182.898,191.527 1182.385,191.678 1181.830,191.829 C1181.274,191.981 1180.740,192.120 1180.228,192.250 C1179.715,192.379 1179.330,192.466 1179.074,192.509 C1178.561,194.495 1177.813,196.491 1176.830,198.499 C1175.847,200.506 1174.821,202.396 1173.753,204.165 C1173.497,204.641 1173.218,205.083 1172.920,205.493 C1172.620,205.904 1172.321,206.325 1172.022,206.756 C1171.851,206.972 1171.670,207.199 1171.477,207.436 C1171.285,207.673 1171.146,207.900 1171.061,208.116 C1170.975,208.289 1170.933,208.526 1170.933,208.828 C1170.933,209.131 1170.933,209.368 1170.933,209.540 C1170.933,210.188 1170.986,211.192 1171.093,212.552 C1171.199,213.912 1171.391,215.283 1171.670,216.664 C1171.947,218.046 1172.353,219.254 1172.888,220.290 C1173.422,221.326 1174.116,221.844 1174.971,221.844 C1175.954,221.844 1176.968,221.467 1178.016,220.711 C1179.063,219.956 1180.067,219.060 1181.029,218.024 C1181.991,216.988 1182.866,215.898 1183.657,214.753 C1184.407,213.669 1185.007,212.755 1185.469,212.000 C1185.345,210.776 1185.248,209.599 1185.195,208.504 C1185.131,207.167 1185.099,206.087 1185.099,205.266 C1185.099,200.733 1185.462,196.255 1186.189,191.829 C1186.915,187.404 1188.176,183.098 1189.971,178.909 C1190.313,178.132 1190.782,177.205 1191.381,176.125 C1191.979,175.046 1192.673,173.999 1193.465,172.984 C1194.255,171.970 1195.109,171.117 1196.029,170.426 C1196.947,169.736 1197.877,169.390 1198.817,169.390 C1199.587,169.390 1200.217,169.574 1200.709,169.940 C1201.199,170.308 1201.584,170.782 1201.862,171.365 C1202.140,171.948 1202.343,172.585 1202.471,173.275 C1202.600,173.967 1202.664,174.614 1202.664,175.218 C1202.664,177.248 1202.428,179.450 1201.959,181.824 C1201.488,184.198 1200.869,186.573 1200.099,188.947 C1199.330,191.322 1198.475,193.632 1197.535,195.876 C1196.595,198.122 1195.633,200.129 1194.651,201.899 C1194.180,202.763 1193.678,203.594 1193.144,204.392 C1192.609,205.191 1192.086,206.022 1191.574,206.885 C1191.402,207.144 1191.199,207.447 1190.965,207.792 C1190.729,208.138 1190.569,208.462 1190.484,208.763 C1190.356,209.109 1190.280,209.573 1190.259,210.156 C1190.237,210.738 1190.227,211.224 1190.227,211.613 C1190.227,212.260 1190.269,213.157 1190.356,214.300 C1190.441,215.444 1190.633,216.578 1190.933,217.700 C1191.231,218.823 1191.638,219.794 1192.151,220.614 C1192.663,221.435 1193.369,221.844 1194.266,221.844 C1195.035,221.844 1195.869,221.553 1196.766,220.970 C1197.664,220.387 1198.529,219.675 1199.362,218.833 C1200.196,217.991 1200.965,217.117 1201.670,216.210 C1202.375,215.304 1202.941,214.549 1203.369,213.944 C1203.588,213.627 1203.784,213.297 1203.981,212.968 C1204.093,211.961 1204.260,210.948 1204.490,209.929 C1204.939,207.944 1205.462,206.022 1206.061,204.165 C1206.189,203.734 1206.306,203.313 1206.414,202.903 C1206.520,202.493 1206.680,202.093 1206.894,201.705 C1207.151,201.186 1207.471,200.755 1207.856,200.409 C1208.241,200.064 1208.731,199.891 1209.330,199.891 C1210.056,199.891 1210.698,200.150 1211.253,200.668 C1211.808,201.186 1212.087,201.813 1212.087,202.546 C1212.087,203.108 1211.916,203.767 1211.574,204.522 C1211.231,205.277 1210.954,205.914 1210.741,206.432 C1210.526,206.993 1210.260,207.727 1209.939,208.634 C1209.619,209.540 1209.319,210.490 1209.042,211.483 C1208.763,212.477 1208.529,213.426 1208.337,214.332 C1208.144,215.239 1208.048,215.995 1208.048,216.599 C1208.048,216.816 1208.069,217.096 1208.112,217.441 C1208.154,217.787 1208.347,217.959 1208.689,217.959 C1208.946,217.959 1209.287,217.808 1209.715,217.506 C1210.142,217.204 1210.580,216.858 1211.029,216.470 C1211.478,216.081 1211.905,215.692 1212.311,215.304 C1212.717,214.915 1213.005,214.635 1213.177,214.462 C1214.928,212.649 1216.542,210.738 1218.017,208.731 C1219.491,206.723 1220.997,204.727 1222.536,202.741 C1222.834,202.396 1223.166,202.007 1223.530,201.575 C1223.892,201.144 1224.331,200.927 1224.844,200.927 C1225.270,200.927 1225.698,201.079 1226.126,201.381 C1226.382,201.554 1226.585,201.986 1226.735,202.676 C1226.884,203.367 1226.991,204.101 1227.055,204.878 C1227.119,205.655 1227.151,206.411 1227.151,207.144 C1227.151,207.879 1227.151,208.418 1227.151,208.763 C1227.151,211.613 1227.097,214.559 1226.991,217.603 C1226.884,220.646 1226.607,223.668 1226.158,226.669 C1225.709,229.669 1225.046,232.594 1224.171,235.444 C1223.294,238.293 1222.065,240.948 1220.485,243.409 C1219.972,244.229 1219.363,245.038 1218.657,245.838 C1217.952,246.636 1217.193,247.337 1216.382,247.942 C1215.569,248.546 1214.693,249.043 1213.754,249.432 C1212.813,249.820 1211.830,250.014 1210.805,250.014 C1209.821,250.014 1208.988,249.809 1208.305,249.399 C1207.621,248.988 1207.065,248.460 1206.638,247.813 C1206.210,247.165 1205.901,246.420 1205.708,245.578 C1205.516,244.737 1205.420,243.884 1205.420,243.021 C1205.420,240.861 1205.986,238.724 1207.119,236.609 C1208.251,234.494 1209.661,232.497 1211.350,230.619 C1213.037,228.741 1214.853,227.003 1216.798,225.406 C1218.743,223.808 1220.549,222.471 1222.215,221.391 C1222.257,220.787 1222.279,220.183 1222.279,219.578 C1222.279,218.930 1222.279,218.305 1222.279,217.700 C1222.279,214.376 1222.215,211.030 1222.087,207.662 C1221.574,208.569 1220.709,209.767 1219.491,211.256 C1218.273,212.746 1216.937,214.214 1215.484,215.660 C1214.031,217.107 1212.568,218.359 1211.093,219.416 C1209.619,220.474 1208.347,221.003 1207.279,221.003 C1206.552,221.003 1205.965,220.841 1205.516,220.517 C1205.067,220.193 1204.715,219.783 1204.458,219.286 C1204.202,218.791 1204.031,218.229 1203.945,217.603 C1203.940,217.560 1203.938,217.521 1203.932,217.478 C1203.926,217.488 1203.920,217.496 1203.914,217.506 C1202.952,218.888 1201.872,220.183 1200.676,221.391 C1199.479,222.600 1198.218,223.625 1196.894,224.467 C1195.569,225.309 1194.244,225.730 1192.920,225.730 C1191.723,225.730 1190.708,225.341 1189.875,224.564 C1189.041,223.787 1188.325,222.783 1187.727,221.553 C1187.128,220.323 1186.659,218.941 1186.317,217.408 C1186.194,216.859 1186.095,216.309 1185.995,215.758 C1185.611,216.337 1185.187,216.950 1184.715,217.603 C1183.731,218.963 1182.642,220.248 1181.446,221.456 C1180.249,222.665 1178.988,223.690 1177.663,224.532 C1176.338,225.374 1175.035,225.795 1173.753,225.795 C1172.641,225.795 1171.670,225.449 1170.836,224.759 C1170.003,224.067 1169.298,223.172 1168.721,222.071 C1168.144,220.970 1167.663,219.730 1167.279,218.347 C1166.976,217.262 1166.743,216.177 1166.546,215.092 C1165.683,216.335 1164.701,217.508 1163.593,218.607 C1162.460,219.730 1161.263,220.679 1160.003,221.456 C1158.742,222.233 1157.513,222.622 1156.317,222.622 C1155.206,222.622 1154.340,222.330 1153.721,221.747 C1153.101,221.165 1152.631,220.442 1152.311,219.578 C1151.990,218.715 1151.798,217.787 1151.734,216.793 C1151.670,215.801 1151.638,214.894 1151.638,214.073 C1151.638,212.822 1151.680,211.591 1151.766,210.382 C1151.851,209.174 1151.894,207.944 1151.894,206.691 C1151.894,206.519 1151.862,206.260 1151.798,205.914 C1151.734,205.569 1151.574,205.396 1151.317,205.396 C1151.103,205.396 1150.846,205.525 1150.548,205.784 C1150.249,206.043 1150.013,206.260 1149.843,206.432 C1148.774,207.468 1147.769,208.677 1146.830,210.058 C1145.889,211.441 1145.035,212.757 1144.266,214.009 C1143.325,215.520 1142.471,217.063 1141.702,218.639 C1140.932,220.215 1140.184,221.823 1139.458,223.463 C1139.201,223.981 1138.849,224.456 1138.400,224.888 C1137.951,225.319 1137.428,225.536 1136.830,225.536 C1136.359,225.536 1136.017,225.374 1135.804,225.050 C1135.590,224.726 1135.483,224.348 1135.483,223.917 C1135.483,221.763 1135.647,219.566 1135.948,217.333 C1134.793,218.635 1133.529,219.779 1132.150,220.763 C1130.740,221.769 1129.222,222.568 1127.599,223.159 C1125.974,223.750 1124.286,224.046 1122.534,224.046 C1121.252,224.046 1120.163,223.797 1119.265,223.302 C1118.367,222.806 1117.630,222.158 1117.053,221.359 C1116.476,220.560 1116.060,219.633 1115.803,218.574 C1115.547,217.517 1115.419,216.405 1115.419,215.239 C1115.419,213.772 1115.696,212.001 1116.252,209.929 C1116.807,207.857 1117.598,205.860 1118.624,203.939 C1119.650,202.018 1120.878,200.388 1122.310,199.049 C1123.741,197.712 1125.312,197.042 1127.022,197.042 C1128.176,197.042 1129.062,197.410 1129.682,198.146 C1130.301,198.882 1130.612,199.812 1130.612,200.938 C1130.612,202.020 1130.280,203.222 1129.618,204.542 C1128.955,205.862 1128.121,207.139 1127.118,208.373 C1126.113,209.607 1125.034,210.700 1123.880,211.652 C1122.727,212.605 1121.658,213.254 1120.675,213.600 C1120.461,214.596 1120.355,215.505 1120.355,216.327 C1120.355,217.799 1120.675,218.958 1121.316,219.802 C1121.957,220.645 1123.025,221.067 1124.522,221.067 C1125.889,221.067 1127.171,220.798 1128.368,220.258 C1129.564,219.719 1130.676,219.027 1131.701,218.186 C1132.727,217.344 1133.667,216.383 1134.522,215.304 C1135.376,214.225 1136.124,213.146 1136.766,212.066 C1136.808,211.998 1136.872,211.919 1136.917,211.849 C1137.428,209.275 1137.934,206.777 1138.432,204.360 C1138.646,203.367 1138.838,202.352 1139.009,201.316 C1139.179,200.280 1139.372,199.266 1139.586,198.272 C1139.756,197.495 1140.216,196.783 1140.964,196.135 C1141.712,195.488 1142.492,195.164 1143.304,195.164 C1144.030,195.164 1144.532,195.358 1144.811,195.747 C1145.088,196.135 1145.227,196.676 1145.227,197.366 C1145.227,198.489 1145.045,199.665 1144.682,200.895 C1144.319,202.125 1143.945,203.259 1143.561,204.295 C1143.090,205.504 1142.727,206.734 1142.471,207.986 C1142.214,209.239 1142.000,210.490 1141.830,211.742 C1142.299,211.052 1142.994,210.058 1143.913,208.763 C1144.832,207.468 1145.825,206.195 1146.894,204.942 C1147.962,203.691 1149.042,202.590 1150.131,201.640 C1151.221,200.691 1152.172,200.215 1152.984,200.215 C1153.625,200.215 1154.138,200.453 1154.523,200.927 C1154.907,201.403 1155.196,201.986 1155.388,202.676 C1155.580,203.367 1155.697,204.058 1155.740,204.748 C1155.783,205.439 1155.805,206.022 1155.805,206.497 C1155.805,208.008 1155.761,209.519 1155.676,211.030 C1155.590,212.541 1155.548,214.052 1155.548,215.563 C1155.548,215.951 1155.558,216.372 1155.580,216.826 C1155.601,217.279 1155.676,217.700 1155.805,218.088 C1155.933,218.477 1156.135,218.801 1156.414,219.060 C1156.691,219.319 1157.087,219.448 1157.600,219.448 C1158.454,219.448 1159.319,219.114 1160.196,218.445 C1161.071,217.776 1161.916,216.977 1162.728,216.049 C1163.539,215.121 1164.266,214.160 1164.907,213.167 C1165.355,212.473 1165.725,211.858 1166.027,211.311 C1165.995,210.969 1165.955,210.617 1165.932,210.285 C1165.846,209.055 1165.804,208.030 1165.804,207.209 C1165.804,205.094 1165.878,202.967 1166.028,200.830 C1166.178,198.693 1166.466,196.589 1166.894,194.516 C1166.466,194.646 1166.017,194.711 1165.548,194.711 C1164.522,194.711 1164.009,194.193 1164.009,193.156 C1164.009,192.293 1164.383,191.732 1165.131,191.473 C1165.878,191.214 1166.594,191.063 1167.279,191.019 C1167.620,189.854 1168.112,188.289 1168.753,186.324 C1169.394,184.360 1170.184,182.418 1171.125,180.496 C1172.064,178.576 1173.144,176.924 1174.362,175.542 C1175.580,174.161 1176.936,173.470 1178.433,173.470 ZM1217.472,227.932 C1215.890,229.313 1214.416,230.814 1213.048,232.432 C1211.680,234.051 1210.537,235.768 1209.619,237.581 C1208.699,239.394 1208.241,241.250 1208.241,243.150 C1208.241,243.539 1208.273,243.981 1208.337,244.478 C1208.401,244.973 1208.529,245.427 1208.721,245.838 C1208.914,246.247 1209.170,246.592 1209.491,246.874 C1209.811,247.154 1210.228,247.295 1210.741,247.295 C1211.253,247.295 1211.755,247.165 1212.247,246.906 C1212.738,246.647 1213.209,246.323 1213.657,245.935 C1214.106,245.546 1214.523,245.125 1214.907,244.672 C1215.292,244.219 1215.634,243.798 1215.933,243.409 C1216.787,242.286 1217.546,240.916 1218.209,239.297 C1218.871,237.678 1219.448,235.983 1219.940,234.213 C1220.430,232.443 1220.847,230.684 1221.190,228.936 C1221.531,227.187 1221.767,225.600 1221.895,224.176 C1220.527,225.298 1219.052,226.550 1217.472,227.932 ZM1190.035,201.899 C1190.035,202.158 1190.056,202.460 1190.099,202.805 C1191.125,201.036 1192.225,198.975 1193.401,196.621 C1194.576,194.268 1195.644,191.829 1196.606,189.303 C1197.567,186.778 1198.369,184.263 1199.010,181.759 C1199.651,179.256 1199.971,176.967 1199.971,174.894 C1199.971,174.765 1199.971,174.571 1199.971,174.312 C1199.971,174.010 1199.939,173.729 1199.875,173.470 C1199.811,173.211 1199.715,172.984 1199.587,172.790 C1199.458,172.595 1199.266,172.498 1199.010,172.498 C1198.326,172.498 1197.685,172.877 1197.087,173.632 C1196.488,174.388 1195.965,175.262 1195.516,176.254 C1195.067,177.248 1194.683,178.262 1194.362,179.298 C1194.042,180.334 1193.795,181.111 1193.625,181.629 C1192.727,184.608 1191.904,187.793 1191.157,191.181 C1190.409,194.571 1190.035,197.819 1190.035,200.927 C1190.035,201.273 1190.035,201.597 1190.035,201.899 ZM1123.111,209.368 C1123.923,208.652 1124.671,207.848 1125.355,206.958 C1126.038,206.068 1126.615,205.156 1127.086,204.222 C1127.556,203.289 1127.791,202.388 1127.791,201.519 C1127.791,201.172 1127.716,200.835 1127.567,200.510 C1127.416,200.184 1127.128,200.021 1126.701,200.021 C1126.060,200.021 1125.419,200.488 1124.778,201.421 C1124.137,202.355 1123.538,203.441 1122.983,204.678 C1122.427,205.917 1121.957,207.154 1121.573,208.392 C1121.188,209.629 1120.953,210.530 1120.868,211.095 C1121.551,210.660 1122.299,210.085 1123.111,209.368 ZM1170.772,199.147 C1170.665,200.895 1170.548,202.633 1170.420,204.360 C1170.889,203.756 1171.413,202.978 1171.990,202.028 C1172.567,201.079 1173.122,200.075 1173.657,199.017 C1174.191,197.960 1174.672,196.924 1175.099,195.909 C1175.526,194.895 1175.847,193.998 1176.061,193.221 C1175.292,193.394 1174.522,193.513 1173.753,193.577 C1172.984,193.642 1172.236,193.783 1171.509,193.998 C1171.125,195.682 1170.878,197.398 1170.772,199.147 ZM1172.631,187.263 C1172.225,188.775 1171.979,189.854 1171.894,190.501 C1172.748,190.372 1173.625,190.275 1174.522,190.210 C1175.420,190.145 1176.295,190.005 1177.151,189.789 C1177.663,188.149 1178.090,186.314 1178.433,184.284 C1178.774,182.256 1178.946,180.378 1178.946,178.650 C1178.946,178.564 1178.946,178.414 1178.946,178.197 C1178.946,177.982 1178.924,177.766 1178.881,177.550 C1178.838,177.334 1178.774,177.140 1178.689,176.967 C1178.603,176.795 1178.475,176.708 1178.305,176.708 C1177.577,176.708 1176.851,177.302 1176.125,178.489 C1175.398,179.676 1174.736,181.058 1174.138,182.633 C1173.539,184.210 1173.037,185.753 1172.631,187.263 ZM1143.186,107.758 L1143.186,7.018 L1157.577,7.018 C1161.175,7.018 1164.773,10.616 1164.773,14.213 L1164.773,114.953 L1150.381,114.953 C1146.783,114.953 1143.186,111.355 1143.186,107.758 ZM1113.110,110.636 L1113.110,35.801 L1128.940,35.801 C1131.819,35.801 1133.258,37.240 1133.258,40.118 L1133.258,114.953 L1117.427,114.953 C1114.549,114.953 1113.110,113.514 1113.110,110.636 ZM1113.110,24.287 L1113.110,14.213 L1128.940,14.213 C1131.819,14.213 1133.258,15.653 1133.258,18.531 L1133.258,28.605 L1117.427,28.605 C1114.549,28.605 1113.110,27.166 1113.110,24.287 ZM1109.650,201.705 C1109.436,201.705 1109.158,201.607 1108.817,201.413 C1108.474,201.219 1108.090,201.014 1107.663,200.798 C1107.235,200.582 1106.755,200.377 1106.221,200.183 C1105.686,199.988 1105.120,199.891 1104.522,199.891 C1102.513,199.891 1100.644,200.399 1098.913,201.413 C1097.182,202.428 1095.653,203.626 1094.329,205.007 C1093.730,205.655 1093.100,206.422 1092.438,207.306 C1091.775,208.191 1091.166,209.131 1090.611,210.123 C1090.055,211.117 1089.596,212.131 1089.233,213.167 C1088.869,214.203 1088.688,215.174 1088.688,216.081 C1088.688,216.772 1088.826,217.366 1089.105,217.862 C1089.382,218.359 1089.906,218.607 1090.675,218.607 C1091.658,218.607 1092.801,218.100 1094.105,217.085 C1095.408,216.071 1096.669,214.862 1097.887,213.458 C1099.105,212.056 1100.205,210.620 1101.188,209.152 C1102.171,207.685 1102.833,206.519 1103.176,205.655 C1103.517,204.921 1104.009,204.176 1104.650,203.421 C1105.291,202.666 1106.060,202.287 1106.958,202.287 C1107.727,202.287 1108.314,202.525 1108.721,203.000 C1109.126,203.475 1109.330,204.079 1109.330,204.813 C1109.330,206.670 1109.276,208.990 1109.170,211.775 C1109.062,214.559 1108.827,217.506 1108.464,220.614 C1108.101,223.722 1107.556,226.831 1106.830,229.939 C1106.103,233.048 1105.120,235.842 1103.881,238.326 C1102.641,240.808 1101.102,242.826 1099.265,244.380 C1097.427,245.935 1095.184,246.712 1092.534,246.712 C1091.509,246.712 1090.589,246.495 1089.778,246.064 C1088.965,245.632 1088.303,244.963 1087.791,244.057 C1087.704,243.840 1087.619,243.636 1087.534,243.441 C1087.448,243.247 1087.406,243.042 1087.406,242.826 C1087.406,242.438 1087.534,242.082 1087.791,241.758 C1088.047,241.434 1088.389,241.272 1088.816,241.272 C1089.201,241.272 1089.489,241.412 1089.682,241.693 C1089.874,241.973 1090.066,242.297 1090.259,242.664 C1090.451,243.031 1090.685,243.354 1090.964,243.636 C1091.241,243.916 1091.679,244.057 1092.278,244.057 C1093.645,244.057 1094.874,243.495 1095.964,242.373 C1097.054,241.250 1098.025,239.793 1098.881,238.002 C1099.735,236.210 1100.472,234.223 1101.092,232.044 C1101.711,229.863 1102.214,227.705 1102.599,225.568 C1102.983,223.431 1103.272,221.446 1103.464,219.610 C1103.656,217.776 1103.753,216.340 1103.753,215.304 C1103.753,214.441 1103.742,213.566 1103.721,212.681 C1103.699,211.797 1103.645,210.922 1103.560,210.058 C1102.961,211.095 1102.160,212.293 1101.156,213.652 C1100.152,215.012 1099.051,216.308 1097.855,217.538 C1096.658,218.768 1095.387,219.816 1094.041,220.679 C1092.695,221.543 1091.380,221.974 1090.098,221.974 C1089.201,221.974 1088.453,221.802 1087.855,221.456 C1087.256,221.111 1086.775,220.658 1086.412,220.096 C1086.049,219.535 1085.792,218.888 1085.643,218.153 C1085.550,217.697 1085.539,217.218 1085.504,216.745 C1085.350,216.942 1085.199,217.137 1085.035,217.344 C1084.094,218.532 1083.058,219.665 1081.926,220.744 C1080.793,221.823 1079.628,222.741 1078.432,223.496 C1077.235,224.251 1076.060,224.629 1074.907,224.629 C1073.624,224.629 1072.609,224.229 1071.862,223.431 C1071.113,222.633 1070.525,221.661 1070.099,220.517 C1069.671,219.374 1069.393,218.164 1069.265,216.890 C1069.243,216.665 1069.224,216.451 1069.206,216.236 C1068.930,216.644 1068.644,217.063 1068.336,217.506 C1067.374,218.888 1066.295,220.183 1065.099,221.391 C1063.902,222.600 1062.641,223.625 1061.317,224.467 C1059.991,225.309 1058.666,225.730 1057.342,225.730 C1056.145,225.730 1055.130,225.341 1054.297,224.564 C1053.464,223.787 1052.748,222.783 1052.150,221.553 C1051.551,220.323 1051.081,218.941 1050.739,217.408 C1050.611,216.837 1050.508,216.265 1050.404,215.693 C1050.026,216.261 1049.617,216.863 1049.169,217.506 C1048.207,218.888 1047.128,220.183 1045.932,221.391 C1044.735,222.600 1043.474,223.625 1042.150,224.467 C1040.824,225.309 1039.499,225.730 1038.175,225.730 C1036.978,225.730 1035.963,225.341 1035.130,224.564 C1034.297,223.787 1033.581,222.783 1032.983,221.553 C1032.384,220.323 1031.914,218.941 1031.572,217.408 C1031.444,216.835 1031.340,216.261 1031.236,215.687 C1030.842,216.213 1030.448,216.739 1030.002,217.247 C1028.826,218.585 1027.534,219.757 1026.124,220.763 C1024.713,221.769 1023.196,222.568 1021.572,223.159 C1019.947,223.750 1018.260,224.046 1016.508,224.046 C1015.226,224.046 1014.136,223.797 1013.238,223.302 C1012.341,222.806 1011.604,222.158 1011.027,221.359 C1010.450,220.560 1010.033,219.633 1009.777,218.574 C1009.681,218.181 1009.622,217.772 1009.562,217.364 C1009.504,217.445 1009.452,217.521 1009.393,217.603 C1008.409,218.963 1007.319,220.248 1006.123,221.456 C1004.926,222.665 1003.665,223.690 1002.341,224.532 C1001.016,225.374 999.713,225.795 998.431,225.795 C997.319,225.795 996.348,225.449 995.514,224.759 C994.681,224.067 993.976,223.172 993.399,222.071 C992.822,220.970 992.341,219.730 991.956,218.347 C991.654,217.262 991.420,216.177 991.224,215.092 C990.361,216.335 989.379,217.508 988.271,218.607 C987.138,219.730 985.941,220.679 984.681,221.456 C983.420,222.233 982.191,222.622 980.995,222.622 C979.883,222.622 979.018,222.330 978.399,221.747 C977.779,221.165 977.309,220.442 976.989,219.578 C976.668,218.715 976.476,217.787 976.412,216.793 C976.348,215.801 976.316,214.894 976.316,214.073 C976.316,212.822 976.358,211.591 976.444,210.382 C976.529,209.174 976.572,207.944 976.572,206.691 C976.572,206.519 976.540,206.260 976.476,205.914 C976.412,205.569 976.251,205.396 975.995,205.396 C975.781,205.396 975.524,205.525 975.226,205.784 C974.926,206.043 974.691,206.260 974.521,206.432 C973.452,207.468 972.447,208.677 971.508,210.058 C970.567,211.441 969.713,212.757 968.943,214.009 C968.003,215.520 967.149,217.063 966.379,218.639 C965.610,220.215 964.862,221.823 964.136,223.463 C963.879,223.981 963.527,224.456 963.078,224.888 C962.629,225.319 962.105,225.536 961.507,225.536 C961.037,225.536 960.695,225.374 960.482,225.050 C960.267,224.726 960.161,224.348 960.161,223.917 C960.161,221.728 960.328,219.495 960.639,217.225 C960.607,217.266 960.579,217.303 960.547,217.344 C959.606,218.532 958.570,219.665 957.438,220.744 C956.305,221.823 955.140,222.741 953.944,223.496 C952.747,224.251 951.572,224.629 950.418,224.629 C949.136,224.629 948.120,224.229 947.373,223.431 C946.625,222.633 946.037,221.661 945.610,220.517 C945.183,219.374 944.905,218.164 944.777,216.890 C944.649,215.617 944.585,214.506 944.585,213.555 C944.585,212.347 944.723,210.997 945.001,209.508 C945.279,208.018 945.588,206.713 945.931,205.590 C946.315,204.424 946.838,203.443 947.501,202.644 C948.163,201.845 949.178,201.445 950.546,201.445 C951.529,201.445 952.021,201.921 952.021,202.870 C952.021,203.302 951.946,203.809 951.796,204.392 C951.646,204.975 951.465,205.580 951.252,206.205 C951.037,206.832 950.824,207.458 950.611,208.083 C950.396,208.710 950.226,209.260 950.098,209.735 C949.713,211.591 949.521,213.513 949.521,215.498 C949.521,215.887 949.531,216.405 949.553,217.052 C949.574,217.700 949.659,218.347 949.809,218.995 C949.959,219.643 950.183,220.204 950.482,220.679 C950.781,221.154 951.208,221.391 951.764,221.391 C952.619,221.391 953.548,220.992 954.553,220.193 C955.557,219.395 956.540,218.445 957.502,217.344 C958.463,216.243 959.339,215.110 960.130,213.944 C960.737,213.049 961.235,212.297 961.628,211.681 C962.128,209.166 962.622,206.725 963.110,204.360 C963.323,203.367 963.516,202.352 963.687,201.316 C963.857,200.280 964.050,199.266 964.264,198.272 C964.434,197.495 964.894,196.783 965.642,196.135 C966.389,195.488 967.170,195.164 967.982,195.164 C968.708,195.164 969.210,195.358 969.488,195.747 C969.766,196.135 969.905,196.676 969.905,197.366 C969.905,198.489 969.723,199.665 969.360,200.895 C968.997,202.125 968.623,203.259 968.238,204.295 C967.768,205.504 967.405,206.734 967.149,207.986 C966.892,209.239 966.678,210.490 966.507,211.742 C966.977,211.052 967.671,210.058 968.591,208.763 C969.509,207.468 970.503,206.195 971.572,204.942 C972.640,203.691 973.719,202.590 974.809,201.640 C975.899,200.691 976.849,200.215 977.662,200.215 C978.303,200.215 978.816,200.453 979.200,200.927 C979.585,201.403 979.873,201.986 980.066,202.676 C980.258,203.367 980.375,204.058 980.418,204.748 C980.460,205.439 980.482,206.022 980.482,206.497 C980.482,208.008 980.439,209.519 980.354,211.030 C980.268,212.541 980.226,214.052 980.226,215.563 C980.226,215.951 980.236,216.372 980.258,216.826 C980.279,217.279 980.354,217.700 980.482,218.088 C980.611,218.477 980.813,218.801 981.091,219.060 C981.369,219.319 981.764,219.448 982.277,219.448 C983.132,219.448 983.997,219.114 984.874,218.445 C985.749,217.776 986.593,216.977 987.406,216.049 C988.217,215.121 988.944,214.160 989.585,213.167 C990.033,212.473 990.403,211.858 990.705,211.311 C990.673,210.969 990.633,210.617 990.610,210.285 C990.524,209.055 990.482,208.030 990.482,207.209 C990.482,205.094 990.556,202.967 990.706,200.830 C990.856,198.693 991.144,196.589 991.572,194.516 C991.144,194.646 990.695,194.711 990.225,194.711 C989.200,194.711 988.687,194.193 988.687,193.156 C988.687,192.293 989.061,191.732 989.809,191.473 C990.556,191.214 991.272,191.063 991.956,191.019 C992.298,189.854 992.790,188.289 993.431,186.324 C994.072,184.360 994.862,182.418 995.803,180.496 C996.742,178.576 997.822,176.924 999.040,175.542 C1000.258,174.161 1001.614,173.470 1003.110,173.470 C1003.794,173.470 1004.328,173.686 1004.713,174.117 C1005.098,174.549 1005.386,175.067 1005.579,175.672 C1005.771,176.277 1005.888,176.913 1005.931,177.582 C1005.973,178.252 1005.995,178.823 1005.995,179.298 C1005.995,180.982 1005.877,182.688 1005.643,184.414 C1005.407,186.141 1005.055,187.825 1004.585,189.465 C1005.311,189.379 1006.037,189.271 1006.765,189.141 C1007.491,189.012 1008.217,188.947 1008.944,188.947 C1009.542,188.947 1009.842,189.228 1009.842,189.789 C1009.842,190.135 1009.766,190.383 1009.617,190.534 C1009.467,190.685 1009.265,190.847 1009.008,191.019 C1008.837,191.106 1008.516,191.225 1008.047,191.376 C1007.576,191.527 1007.063,191.678 1006.508,191.829 C1005.952,191.981 1005.418,192.120 1004.905,192.250 C1004.393,192.379 1004.008,192.466 1003.752,192.509 C1003.239,194.495 1002.491,196.491 1001.508,198.499 C1000.524,200.506 999.499,202.396 998.431,204.165 C998.174,204.641 997.896,205.083 997.598,205.493 C997.298,205.904 996.999,206.325 996.700,206.756 C996.529,206.972 996.348,207.199 996.155,207.436 C995.963,207.673 995.824,207.900 995.738,208.116 C995.652,208.289 995.610,208.526 995.610,208.828 C995.610,209.131 995.610,209.368 995.610,209.540 C995.610,210.188 995.663,211.192 995.771,212.552 C995.877,213.912 996.069,215.283 996.348,216.664 C996.625,218.046 997.031,219.254 997.565,220.290 C998.099,221.326 998.793,221.844 999.649,221.844 C1000.632,221.844 1001.646,221.467 1002.694,220.711 C1003.741,219.956 1004.745,219.060 1005.707,218.024 C1006.668,216.988 1007.544,215.898 1008.335,214.753 C1008.816,214.058 1009.230,213.438 1009.592,212.878 C1009.731,211.974 1009.940,210.992 1010.226,209.929 C1010.780,207.857 1011.572,205.860 1012.597,203.939 C1013.623,202.018 1014.851,200.388 1016.283,199.049 C1017.715,197.712 1019.285,197.042 1020.995,197.042 C1022.149,197.042 1023.035,197.410 1023.655,198.146 C1024.274,198.882 1024.585,199.812 1024.585,200.938 C1024.585,202.020 1024.253,203.222 1023.591,204.542 C1022.928,205.862 1022.095,207.139 1021.091,208.373 C1020.087,209.607 1019.008,210.700 1017.854,211.652 C1016.700,212.605 1015.631,213.254 1014.649,213.600 C1014.434,214.596 1014.328,215.505 1014.328,216.327 C1014.328,217.799 1014.649,218.958 1015.290,219.802 C1015.931,220.645 1016.999,221.067 1018.495,221.067 C1019.862,221.067 1021.144,220.798 1022.341,220.258 C1023.537,219.719 1024.649,219.027 1025.675,218.186 C1026.700,217.344 1027.640,216.383 1028.495,215.304 C1029.347,214.229 1030.092,213.153 1030.732,212.077 C1030.604,210.824 1030.504,209.622 1030.450,208.504 C1030.386,207.167 1030.354,206.087 1030.354,205.266 C1030.354,200.733 1030.717,196.255 1031.444,191.829 C1032.170,187.404 1033.431,183.098 1035.226,178.909 C1035.568,178.132 1036.038,177.205 1036.637,176.125 C1037.235,175.046 1037.929,173.999 1038.720,172.984 C1039.510,171.970 1040.365,171.117 1041.284,170.426 C1042.203,169.736 1043.132,169.390 1044.073,169.390 C1044.842,169.390 1045.472,169.574 1045.964,169.940 C1046.455,170.308 1046.839,170.782 1047.118,171.365 C1047.395,171.948 1047.598,172.585 1047.727,173.275 C1047.855,173.967 1047.919,174.614 1047.919,175.218 C1047.919,177.248 1047.684,179.450 1047.214,181.824 C1046.743,184.198 1046.124,186.573 1045.355,188.947 C1044.586,191.322 1043.730,193.632 1042.791,195.876 C1041.850,198.122 1040.888,200.129 1039.906,201.899 C1039.435,202.763 1038.933,203.594 1038.399,204.392 C1037.865,205.191 1037.342,206.022 1036.829,206.885 C1036.658,207.144 1036.454,207.447 1036.220,207.792 C1035.984,208.138 1035.824,208.462 1035.739,208.763 C1035.611,209.109 1035.536,209.573 1035.515,210.156 C1035.493,210.738 1035.483,211.224 1035.483,211.613 C1035.483,212.260 1035.525,213.157 1035.611,214.300 C1035.696,215.444 1035.888,216.578 1036.188,217.700 C1036.486,218.823 1036.893,219.794 1037.406,220.614 C1037.919,221.435 1038.624,221.844 1039.521,221.844 C1040.291,221.844 1041.124,221.553 1042.021,220.970 C1042.919,220.387 1043.784,219.675 1044.618,218.833 C1045.451,217.991 1046.220,217.117 1046.925,216.210 C1047.631,215.304 1048.196,214.549 1048.624,213.944 C1048.923,213.513 1049.201,213.070 1049.457,212.616 C1049.589,212.384 1049.742,212.162 1049.885,211.935 C1049.764,210.735 1049.669,209.580 1049.617,208.504 C1049.553,207.167 1049.521,206.087 1049.521,205.266 C1049.521,200.733 1049.884,196.255 1050.611,191.829 C1051.337,187.404 1052.598,183.098 1054.393,178.909 C1054.735,178.132 1055.205,177.205 1055.804,176.125 C1056.402,175.046 1057.096,173.999 1057.887,172.984 C1058.677,171.970 1059.532,171.117 1060.451,170.426 C1061.370,169.736 1062.299,169.390 1063.240,169.390 C1064.009,169.390 1064.639,169.574 1065.131,169.940 C1065.622,170.308 1066.006,170.782 1066.285,171.365 C1066.562,171.948 1066.765,172.585 1066.894,173.275 C1067.022,173.967 1067.086,174.614 1067.086,175.218 C1067.086,177.248 1066.851,179.450 1066.381,181.824 C1065.910,184.198 1065.291,186.573 1064.522,188.947 C1063.753,191.322 1062.897,193.632 1061.958,195.876 C1061.017,198.122 1060.055,200.129 1059.073,201.899 C1058.602,202.763 1058.100,203.594 1057.566,204.392 C1057.032,205.191 1056.509,206.022 1055.996,206.885 C1055.825,207.144 1055.621,207.447 1055.387,207.792 C1055.151,208.138 1054.991,208.462 1054.906,208.763 C1054.778,209.109 1054.703,209.573 1054.682,210.156 C1054.660,210.738 1054.650,211.224 1054.650,211.613 C1054.650,212.260 1054.692,213.157 1054.778,214.300 C1054.863,215.444 1055.055,216.578 1055.355,217.700 C1055.653,218.823 1056.060,219.794 1056.573,220.614 C1057.086,221.435 1057.791,221.844 1058.688,221.844 C1059.458,221.844 1060.291,221.553 1061.188,220.970 C1062.086,220.387 1062.951,219.675 1063.785,218.833 C1064.618,217.991 1065.387,217.117 1066.092,216.210 C1066.797,215.304 1067.363,214.549 1067.791,213.944 C1068.090,213.513 1068.368,213.070 1068.624,212.616 C1068.792,212.321 1068.983,212.037 1069.168,211.751 C1069.237,211.041 1069.342,210.296 1069.490,209.508 C1069.767,208.018 1070.077,206.713 1070.419,205.590 C1070.804,204.424 1071.327,203.443 1071.990,202.644 C1072.652,201.845 1073.666,201.445 1075.035,201.445 C1076.017,201.445 1076.509,201.921 1076.509,202.870 C1076.509,203.302 1076.434,203.809 1076.285,204.392 C1076.135,204.975 1075.953,205.580 1075.740,206.205 C1075.525,206.832 1075.312,207.458 1075.099,208.083 C1074.884,208.710 1074.714,209.260 1074.586,209.735 C1074.201,211.591 1074.009,213.513 1074.009,215.498 C1074.009,215.887 1074.019,216.405 1074.041,217.052 C1074.062,217.700 1074.147,218.347 1074.297,218.995 C1074.447,219.643 1074.671,220.204 1074.971,220.679 C1075.269,221.154 1075.697,221.391 1076.253,221.391 C1077.107,221.391 1078.037,220.992 1079.041,220.193 C1080.045,219.395 1081.028,218.445 1081.990,217.344 C1082.952,216.243 1083.827,215.110 1084.618,213.944 C1085.199,213.087 1085.681,212.361 1086.066,211.760 C1086.369,210.718 1086.739,209.694 1087.214,208.698 C1087.769,207.533 1088.410,206.432 1089.137,205.396 C1089.863,204.360 1090.632,203.432 1091.445,202.611 C1093.068,200.971 1094.884,199.708 1096.893,198.823 C1098.902,197.938 1101.060,197.495 1103.368,197.495 C1103.838,197.495 1104.458,197.571 1105.227,197.722 C1105.996,197.874 1106.766,198.089 1107.535,198.369 C1108.304,198.651 1108.966,199.017 1109.522,199.470 C1110.077,199.924 1110.355,200.453 1110.355,201.057 C1110.355,201.273 1110.280,201.435 1110.131,201.543 C1109.981,201.651 1109.820,201.705 1109.650,201.705 ZM1001.828,189.789 C1002.341,188.149 1002.768,186.314 1003.110,184.284 C1003.452,182.256 1003.623,180.378 1003.623,178.650 C1003.623,178.564 1003.623,178.414 1003.623,178.197 C1003.623,177.982 1003.601,177.766 1003.559,177.550 C1003.516,177.334 1003.452,177.140 1003.367,176.967 C1003.281,176.795 1003.153,176.708 1002.982,176.708 C1002.255,176.708 1001.529,177.302 1000.803,178.489 C1000.076,179.676 999.414,181.058 998.815,182.633 C998.217,184.210 997.715,185.753 997.309,187.263 C996.902,188.775 996.657,189.854 996.572,190.501 C997.426,190.372 998.303,190.275 999.200,190.210 C1000.098,190.145 1000.973,190.005 1001.828,189.789 ZM996.668,202.028 C997.245,201.079 997.800,200.075 998.335,199.017 C998.869,197.960 999.349,196.924 999.777,195.909 C1000.204,194.895 1000.524,193.998 1000.739,193.221 C999.969,193.394 999.200,193.513 998.431,193.577 C997.662,193.642 996.913,193.783 996.187,193.998 C995.803,195.682 995.556,197.398 995.450,199.147 C995.343,200.895 995.226,202.633 995.097,204.360 C995.567,203.756 996.091,202.978 996.668,202.028 ZM1017.085,209.368 C1017.896,208.652 1018.644,207.848 1019.328,206.958 C1020.012,206.068 1020.588,205.156 1021.059,204.222 C1021.529,203.289 1021.764,202.388 1021.764,201.519 C1021.764,201.172 1021.689,200.835 1021.540,200.510 C1021.390,200.184 1021.101,200.021 1020.675,200.021 C1020.034,200.021 1019.392,200.488 1018.751,201.421 C1018.110,202.355 1017.511,203.441 1016.956,204.678 C1016.401,205.917 1015.931,207.154 1015.546,208.392 C1015.162,209.629 1014.926,210.530 1014.841,211.095 C1015.524,210.660 1016.272,210.085 1017.085,209.368 ZM1038.656,196.621 C1039.831,194.268 1040.899,191.829 1041.861,189.303 C1042.823,186.778 1043.624,184.263 1044.265,181.759 C1044.906,179.256 1045.227,176.967 1045.227,174.894 C1045.227,174.765 1045.227,174.571 1045.227,174.312 C1045.227,174.010 1045.194,173.729 1045.130,173.470 C1045.066,173.211 1044.970,172.984 1044.842,172.790 C1044.714,172.595 1044.521,172.498 1044.265,172.498 C1043.581,172.498 1042.940,172.877 1042.342,173.632 C1041.743,174.388 1041.220,175.262 1040.771,176.254 C1040.323,177.248 1039.938,178.262 1039.617,179.298 C1039.297,180.334 1039.050,181.111 1038.880,181.629 C1037.983,184.608 1037.159,187.793 1036.412,191.181 C1035.664,194.571 1035.290,197.819 1035.290,200.927 C1035.290,201.273 1035.290,201.597 1035.290,201.899 C1035.290,202.158 1035.311,202.460 1035.354,202.805 C1036.380,201.036 1037.480,198.975 1038.656,196.621 ZM1057.823,196.621 C1058.998,194.268 1060.066,191.829 1061.028,189.303 C1061.990,186.778 1062.791,184.263 1063.432,181.759 C1064.073,179.256 1064.394,176.967 1064.394,174.894 C1064.394,174.765 1064.394,174.571 1064.394,174.312 C1064.394,174.010 1064.361,173.729 1064.297,173.470 C1064.233,173.211 1064.137,172.984 1064.009,172.790 C1063.881,172.595 1063.688,172.498 1063.432,172.498 C1062.748,172.498 1062.107,172.877 1061.509,173.632 C1060.910,174.388 1060.387,175.262 1059.938,176.254 C1059.490,177.248 1059.105,178.262 1058.784,179.298 C1058.464,180.334 1058.217,181.111 1058.047,181.629 C1057.150,184.608 1056.326,187.793 1055.579,191.181 C1054.831,194.571 1054.457,197.819 1054.457,200.927 C1054.457,201.273 1054.457,201.597 1054.457,201.899 C1054.457,202.158 1054.478,202.460 1054.522,202.805 C1055.547,201.036 1056.647,198.975 1057.823,196.621 ZM1076.573,191.537 C1077.256,191.537 1077.801,191.786 1078.208,192.282 C1078.614,192.779 1078.817,193.351 1078.817,193.998 C1078.817,194.862 1078.517,195.650 1077.919,196.362 C1077.320,197.074 1076.594,197.430 1075.740,197.430 C1075.056,197.430 1074.522,197.183 1074.137,196.686 C1073.753,196.190 1073.560,195.617 1073.560,194.970 C1073.560,194.150 1073.849,193.373 1074.426,192.638 C1075.003,191.905 1075.718,191.537 1076.573,191.537 ZM1071.666,114.953 L1039.717,114.953 L1038.565,114.953 L1038.565,7.018 L1051.518,7.018 C1055.115,7.018 1058.713,10.616 1058.713,14.213 L1058.713,37.096 C1063.462,34.793 1070.082,33.642 1074.544,33.642 C1093.541,33.642 1106.205,48.753 1106.205,75.377 C1106.205,102.001 1090.662,114.953 1071.666,114.953 ZM1074.544,49.904 C1069.795,49.904 1063.175,51.775 1058.713,53.646 L1058.713,99.411 L1071.666,99.411 C1080.444,99.411 1086.057,91.639 1086.057,75.377 C1086.057,59.115 1083.323,49.904 1074.544,49.904 ZM992.229,117.112 C971.506,117.112 954.811,102.001 954.811,75.377 C954.811,48.753 971.506,33.642 992.229,33.642 C1012.953,33.642 1029.647,48.753 1029.647,75.377 C1029.647,102.001 1012.953,117.112 992.229,117.112 ZM992.229,50.912 C981.867,50.912 974.959,57.388 974.959,75.377 C974.959,93.366 981.867,99.842 992.229,99.842 C1002.591,99.842 1009.499,93.366 1009.499,75.377 C1009.499,57.388 1002.591,50.912 992.229,50.912 ZM951.252,197.430 C950.567,197.430 950.034,197.183 949.649,196.686 C949.264,196.190 949.072,195.617 949.072,194.970 C949.072,194.150 949.360,193.373 949.937,192.638 C950.514,191.905 951.230,191.537 952.085,191.537 C952.768,191.537 953.313,191.786 953.720,192.282 C954.125,192.779 954.329,193.351 954.329,193.998 C954.329,194.862 954.029,195.650 953.431,196.362 C952.832,197.074 952.106,197.430 951.252,197.430 ZM925.457,42.996 C918.261,43.572 910.346,71.779 903.294,71.779 C896.099,71.779 888.183,43.428 880.988,42.996 L880.988,114.953 L859.257,114.953 L859.257,21.409 C859.257,17.811 862.998,14.213 866.596,14.213 L880.988,14.213 C895.379,14.501 896.099,50.192 903.294,50.192 C910.490,50.192 911.210,14.213 925.745,14.213 L939.993,14.213 C943.590,14.213 947.332,17.811 947.332,21.409 L947.332,114.953 L925.601,114.953 C925.601,114.953 925.457,72.786 925.457,42.996 ZM863.429,198.564 C864.113,198.975 864.647,199.514 865.032,200.183 C865.417,200.853 865.694,201.619 865.865,202.482 C866.036,203.346 866.122,204.209 866.122,205.072 C866.122,206.238 865.983,207.512 865.705,208.893 C865.427,210.275 865.042,211.645 864.551,213.005 C864.060,214.365 863.472,215.660 862.788,216.890 C862.104,218.121 861.335,219.147 860.481,219.966 C860.053,220.399 859.593,220.776 859.102,221.100 C858.611,221.424 858.066,221.629 857.468,221.715 C858.109,221.844 858.750,221.909 859.391,221.909 C860.886,221.909 862.329,221.629 863.718,221.067 C865.106,220.507 866.410,219.772 867.628,218.866 C868.846,217.959 869.946,216.913 870.930,215.725 C871.912,214.538 872.746,213.319 873.430,212.066 C873.588,211.825 873.767,211.513 873.963,211.142 C874.068,210.133 874.177,209.125 874.263,208.116 C874.391,206.605 874.540,205.094 874.711,203.583 C874.754,203.194 874.786,202.708 874.808,202.125 C874.829,201.543 874.904,200.992 875.032,200.474 C875.160,199.956 875.363,199.503 875.641,199.114 C875.918,198.726 876.335,198.531 876.891,198.531 C877.318,198.531 877.734,198.661 878.141,198.920 C878.547,199.179 878.899,199.514 879.199,199.924 C879.497,200.334 879.733,200.766 879.904,201.219 C880.074,201.672 880.160,202.093 880.160,202.482 C880.160,203.216 880.106,203.961 880.000,204.716 C879.893,205.472 879.797,206.216 879.712,206.950 C880.267,206.173 880.972,205.277 881.827,204.262 C882.682,203.249 883.611,202.266 884.616,201.316 C885.619,200.367 886.667,199.567 887.757,198.920 C888.847,198.272 889.904,197.949 890.930,197.949 C891.956,197.949 892.810,198.154 893.494,198.564 C894.177,198.975 894.712,199.514 895.097,200.183 C895.481,200.853 895.759,201.619 895.930,202.482 C896.100,203.346 896.187,204.209 896.187,205.072 C896.187,206.238 896.047,207.512 895.770,208.893 C895.491,210.275 895.107,211.645 894.616,213.005 C894.124,214.365 893.536,215.660 892.853,216.890 C892.169,218.121 891.400,219.147 890.545,219.966 C890.118,220.399 889.658,220.776 889.167,221.100 C888.675,221.424 888.130,221.629 887.532,221.715 C888.173,221.844 888.815,221.909 889.456,221.909 C890.951,221.909 892.393,221.629 893.783,221.067 C895.171,220.507 896.475,219.772 897.693,218.866 C898.911,217.959 900.011,216.913 900.994,215.725 C901.359,215.284 901.682,214.834 902.006,214.384 C902.156,214.181 902.303,213.975 902.449,213.770 C902.826,213.208 903.180,212.641 903.495,212.066 C903.665,211.807 903.857,211.473 904.071,211.062 C904.182,210.850 904.317,210.695 904.474,210.592 C905.816,208.231 906.941,205.734 907.789,203.064 C907.405,201.942 907.212,200.798 907.212,199.632 C907.212,198.985 907.318,198.230 907.533,197.366 C907.746,196.503 908.045,195.682 908.430,194.905 C908.815,194.128 909.306,193.459 909.905,192.897 C910.503,192.337 911.187,192.055 911.956,192.055 C912.341,192.055 912.671,192.175 912.950,192.412 C913.227,192.649 913.440,192.952 913.591,193.318 C913.740,193.686 913.847,194.063 913.911,194.452 C913.975,194.840 914.007,195.207 914.007,195.552 C914.007,196.632 913.857,197.722 913.559,198.823 C913.259,199.924 912.918,200.971 912.533,201.964 C913.046,203.216 913.644,204.468 914.328,205.720 C915.011,206.972 915.674,208.235 916.315,209.508 C916.956,210.782 917.490,212.088 917.918,213.426 C918.344,214.765 918.559,216.124 918.559,217.506 C918.559,218.370 918.441,219.233 918.206,220.096 C917.971,220.960 917.597,221.758 917.084,222.492 C917.854,222.536 918.751,222.201 919.777,221.488 C920.802,220.776 921.828,219.934 922.854,218.963 C923.879,217.991 924.819,216.999 925.674,215.984 C926.529,214.970 927.149,214.160 927.533,213.555 C927.747,213.254 928.003,212.898 928.303,212.487 C928.601,212.077 928.965,211.872 929.392,211.872 C929.777,211.872 930.033,212.001 930.162,212.260 C930.290,212.519 930.354,212.822 930.354,213.167 C930.354,213.383 930.279,213.610 930.130,213.847 C929.979,214.085 929.862,214.311 929.777,214.527 C928.580,216.427 927.319,218.132 925.995,219.643 C924.670,221.154 923.227,222.427 921.668,223.463 C920.107,224.500 918.376,225.287 916.475,225.827 C914.573,226.366 912.469,226.637 910.161,226.637 C908.921,226.637 907.586,226.507 906.154,226.248 C904.722,225.989 903.536,225.406 902.597,224.500 C902.382,224.283 902.212,224.067 902.084,223.852 C901.956,223.635 901.891,223.376 901.891,223.075 C901.891,222.427 902.234,222.103 902.917,222.103 C903.174,222.103 903.376,222.147 903.526,222.233 C903.675,222.320 903.857,222.427 904.071,222.557 C904.797,223.032 905.523,223.355 906.251,223.528 C906.977,223.700 907.767,223.787 908.623,223.787 C910.331,223.787 911.624,223.258 912.501,222.201 C913.376,221.143 913.815,219.794 913.815,218.153 C913.815,217.161 913.676,216.103 913.398,214.980 C913.120,213.858 912.767,212.736 912.341,211.613 C911.913,210.490 911.432,209.401 910.898,208.342 C910.363,207.285 909.841,206.367 909.328,205.590 C909.028,206.454 908.655,207.414 908.206,208.472 C907.757,209.530 907.254,210.576 906.699,211.613 C906.143,212.649 905.556,213.642 904.936,214.591 C904.316,215.542 903.686,216.340 903.045,216.988 C902.960,217.074 902.847,217.169 902.752,217.258 C902.605,217.438 902.460,217.621 902.309,217.797 C901.176,219.114 899.937,220.258 898.590,221.229 C897.244,222.201 895.770,222.956 894.167,223.496 C892.565,224.035 890.823,224.305 888.943,224.305 C888.173,224.305 887.308,224.262 886.346,224.176 C885.385,224.089 884.423,223.917 883.462,223.658 C882.500,223.399 881.613,223.054 880.801,222.622 C879.989,222.191 879.348,221.629 878.878,220.938 C878.707,222.924 878.494,225.266 878.237,227.964 C877.981,230.662 877.670,233.404 877.308,236.188 C876.944,238.973 876.516,241.661 876.026,244.251 C875.534,246.841 874.925,249.000 874.199,250.727 C874.027,251.158 873.803,251.622 873.526,252.119 C873.247,252.615 872.917,253.079 872.532,253.511 C872.147,253.942 871.731,254.299 871.282,254.580 C870.833,254.860 870.331,255.001 869.775,255.001 C869.049,255.001 868.451,254.752 867.981,254.256 C867.511,253.759 867.147,253.165 866.891,252.475 C866.634,251.784 866.464,251.051 866.378,250.273 C866.293,249.496 866.250,248.849 866.250,248.331 C866.250,245.912 866.474,243.312 866.923,240.527 C867.371,237.743 867.949,234.926 868.654,232.076 C869.359,229.227 870.139,226.431 870.993,223.690 C871.799,221.109 872.564,218.716 873.293,216.498 C872.952,216.942 872.604,217.378 872.244,217.797 C871.111,219.114 869.872,220.258 868.526,221.229 C867.180,222.201 865.705,222.956 864.103,223.496 C862.500,224.035 860.758,224.305 858.878,224.305 C858.109,224.305 857.243,224.262 856.282,224.176 C855.320,224.089 854.359,223.917 853.397,223.658 C852.436,223.399 851.548,223.054 850.737,222.622 C849.924,222.191 849.283,221.629 848.814,220.938 C848.642,222.924 848.429,225.266 848.173,227.964 C847.916,230.662 847.606,233.404 847.243,236.188 C846.879,238.973 846.452,241.661 845.961,244.251 C845.469,246.841 844.860,249.000 844.134,250.727 C843.963,251.158 843.738,251.622 843.461,252.119 C843.182,252.615 842.852,253.079 842.467,253.511 C842.083,253.942 841.666,254.299 841.217,254.580 C840.769,254.860 840.267,255.001 839.711,255.001 C838.985,255.001 838.387,254.752 837.916,254.256 C837.446,253.759 837.082,253.165 836.826,252.475 C836.570,251.784 836.399,251.051 836.313,250.273 C836.228,249.496 836.185,248.849 836.185,248.331 C836.185,245.912 836.409,243.312 836.858,240.527 C837.307,237.743 837.884,234.926 838.589,232.076 C839.294,229.227 840.074,226.431 840.929,223.690 C841.682,221.276 842.399,219.030 843.086,216.934 C842.772,217.341 842.442,217.766 842.083,218.218 C841.228,219.298 840.298,220.312 839.295,221.262 C838.290,222.212 837.221,223.010 836.090,223.658 C834.957,224.305 833.835,224.629 832.724,224.629 C831.655,224.629 830.801,224.251 830.160,223.496 C829.519,222.741 829.027,221.834 828.685,220.776 C828.343,219.719 828.129,218.618 828.044,217.473 C827.958,216.330 827.937,215.369 827.980,214.591 C827.553,215.239 827.008,216.049 826.346,217.020 C825.683,217.991 824.945,218.930 824.134,219.837 C823.322,220.744 822.477,221.521 821.602,222.168 C820.725,222.816 819.860,223.140 819.006,223.140 C818.236,223.140 817.595,222.903 817.082,222.427 C816.570,221.953 816.174,221.370 815.897,220.679 C815.618,219.989 815.426,219.254 815.320,218.477 C815.212,217.700 815.159,217.010 815.159,216.405 C815.159,214.721 815.565,212.801 816.377,210.641 C817.189,208.483 818.268,206.443 819.615,204.522 C820.961,202.601 822.499,200.992 824.230,199.697 C825.961,198.402 827.766,197.754 829.647,197.754 C830.117,197.754 830.586,197.971 831.057,198.402 C831.527,198.834 831.762,199.287 831.762,199.762 C831.762,199.978 831.698,200.140 831.570,200.247 C831.442,200.356 831.292,200.453 831.121,200.539 C829.968,201.230 828.867,201.953 827.820,202.708 C826.772,203.464 825.779,204.338 824.839,205.331 C823.172,207.058 821.847,208.990 820.865,211.127 C819.881,213.264 819.390,215.563 819.390,218.024 C819.390,218.283 819.432,218.607 819.518,218.995 C819.604,219.384 819.839,219.578 820.224,219.578 C820.693,219.578 821.227,219.286 821.826,218.704 C822.424,218.121 823.044,217.387 823.685,216.502 C824.326,215.617 824.956,214.624 825.576,213.523 C826.195,212.422 826.783,211.354 827.339,210.317 C827.894,209.281 828.375,208.321 828.782,207.436 C829.187,206.551 829.497,205.893 829.711,205.461 C829.924,204.986 830.192,204.544 830.512,204.133 C830.833,203.723 831.292,203.518 831.891,203.518 C832.232,203.518 832.564,203.583 832.884,203.712 C833.205,203.842 833.365,204.123 833.365,204.554 C833.365,205.029 833.215,205.655 832.916,206.432 C832.617,207.209 832.381,207.835 832.211,208.310 C831.869,209.433 831.623,210.631 831.474,211.904 C831.324,213.178 831.250,214.376 831.250,215.498 C831.250,215.844 831.260,216.362 831.282,217.052 C831.303,217.743 831.378,218.445 831.506,219.157 C831.634,219.869 831.837,220.496 832.115,221.035 C832.392,221.575 832.788,221.844 833.301,221.844 C834.070,221.844 834.925,221.499 835.865,220.808 C836.805,220.118 837.724,219.309 838.622,218.380 C839.519,217.452 840.352,216.492 841.122,215.498 C841.891,214.506 842.468,213.707 842.853,213.102 C843.066,212.757 843.301,212.401 843.558,212.034 C843.639,211.917 843.736,211.826 843.839,211.746 C843.969,210.536 844.095,209.326 844.198,208.116 C844.326,206.605 844.476,205.094 844.647,203.583 C844.689,203.194 844.721,202.708 844.743,202.125 C844.764,201.543 844.839,200.992 844.967,200.474 C845.096,199.956 845.298,199.503 845.576,199.114 C845.854,198.726 846.270,198.531 846.826,198.531 C847.253,198.531 847.670,198.661 848.076,198.920 C848.482,199.179 848.835,199.514 849.134,199.924 C849.433,200.334 849.668,200.766 849.839,201.219 C850.010,201.672 850.096,202.093 850.096,202.482 C850.096,203.216 850.042,203.961 849.935,204.716 C849.828,205.472 849.732,206.216 849.647,206.950 C850.202,206.173 850.907,205.277 851.762,204.262 C852.617,203.249 853.546,202.266 854.551,201.316 C855.555,200.367 856.602,199.567 857.692,198.920 C858.782,198.272 859.840,197.949 860.865,197.949 C861.891,197.949 862.745,198.154 863.429,198.564 ZM879.519,218.801 C879.904,218.801 880.299,218.953 880.705,219.254 C881.111,219.557 881.763,219.707 882.661,219.707 C883.943,219.707 885.161,219.082 886.314,217.829 C887.468,216.578 888.472,215.099 889.327,213.393 C890.182,211.688 890.855,209.940 891.347,208.148 C891.837,206.357 892.084,204.921 892.084,203.842 C892.084,203.194 891.966,202.504 891.731,201.769 C891.496,201.036 890.972,200.668 890.161,200.668 C889.433,200.668 888.568,201.068 887.564,201.866 C886.560,202.666 885.577,203.594 884.616,204.651 C883.654,205.709 882.767,206.799 881.955,207.921 C881.143,209.045 880.566,209.929 880.225,210.576 C880.096,210.793 879.968,211.289 879.840,212.066 C879.712,212.843 879.594,213.685 879.487,214.591 C879.380,215.498 879.295,216.372 879.231,217.214 C879.167,218.056 879.113,218.650 879.071,218.995 C879.199,218.866 879.348,218.801 879.519,218.801 ZM872.372,228.094 C871.753,230.403 871.186,232.799 870.673,235.282 C870.160,237.764 869.754,240.192 869.455,242.567 C869.156,244.941 869.006,246.971 869.006,248.655 C869.006,248.784 869.006,249.000 869.006,249.302 C869.006,249.647 869.038,249.982 869.102,250.306 C869.166,250.630 869.242,250.921 869.327,251.180 C869.413,251.439 869.562,251.569 869.775,251.569 C870.032,251.569 870.288,251.234 870.545,250.565 C870.801,249.895 871.026,249.140 871.218,248.298 C871.410,247.457 871.570,246.657 871.699,245.902 C871.827,245.146 871.913,244.661 871.955,244.445 C872.553,240.775 873.034,237.095 873.397,233.404 C873.760,229.713 874.048,226.010 874.263,222.298 C873.622,223.852 872.991,225.784 872.372,228.094 ZM842.307,228.094 C841.688,230.403 841.121,232.799 840.608,235.282 C840.095,237.764 839.690,240.192 839.390,242.567 C839.092,244.941 838.941,246.971 838.941,248.655 C838.941,248.784 838.941,249.000 838.941,249.302 C838.941,249.647 838.974,249.982 839.038,250.306 C839.102,250.630 839.177,250.921 839.262,251.180 C839.348,251.439 839.497,251.569 839.711,251.569 C839.967,251.569 840.224,251.234 840.480,250.565 C840.736,249.895 840.961,249.140 841.153,248.298 C841.345,247.457 841.506,246.657 841.634,245.902 C841.762,245.146 841.848,244.661 841.890,244.445 C842.488,240.775 842.969,237.095 843.333,233.404 C843.695,229.713 843.984,226.010 844.198,222.298 C843.557,223.852 842.926,225.784 842.307,228.094 ZM860.096,200.668 C859.369,200.668 858.503,201.068 857.500,201.866 C856.495,202.666 855.513,203.594 854.551,204.651 C853.589,205.709 852.702,206.799 851.891,207.921 C851.078,209.045 850.501,209.929 850.160,210.576 C850.032,210.793 849.903,211.289 849.775,212.066 C849.647,212.843 849.529,213.685 849.423,214.591 C849.315,215.498 849.230,216.372 849.166,217.214 C849.102,218.056 849.048,218.650 849.006,218.995 C849.134,218.866 849.283,218.801 849.455,218.801 C849.839,218.801 850.234,218.953 850.641,219.254 C851.046,219.557 851.698,219.707 852.596,219.707 C853.878,219.707 855.096,219.082 856.250,217.829 C857.404,216.578 858.407,215.099 859.263,213.393 C860.117,211.688 860.790,209.940 861.282,208.148 C861.773,206.357 862.019,204.921 862.019,203.842 C862.019,203.194 861.901,202.504 861.667,201.769 C861.431,201.036 860.907,200.668 860.096,200.668 ZM793.942,201.705 C793.727,201.705 793.450,201.607 793.108,201.413 C792.766,201.219 792.381,201.014 791.954,200.798 C791.527,200.582 791.046,200.377 790.512,200.183 C789.977,199.988 789.411,199.891 788.813,199.891 C786.804,199.891 784.935,200.399 783.204,201.413 C781.473,202.428 779.945,203.626 778.621,205.007 C778.022,205.655 777.392,206.422 776.730,207.306 C776.067,208.191 775.457,209.131 774.903,210.123 C774.347,211.117 773.887,212.131 773.524,213.167 C773.161,214.203 772.979,215.174 772.979,216.081 C772.979,216.772 773.118,217.366 773.396,217.862 C773.674,218.359 774.197,218.607 774.967,218.607 C775.949,218.607 777.092,218.100 778.396,217.085 C779.699,216.071 780.960,214.862 782.179,213.458 C783.396,212.056 784.496,210.620 785.480,209.152 C786.463,207.685 787.125,206.519 787.467,205.655 C787.809,204.921 788.300,204.176 788.941,203.421 C789.583,202.666 790.352,202.287 791.249,202.287 C792.018,202.287 792.605,202.525 793.012,203.000 C793.418,203.475 793.621,204.079 793.621,204.813 C793.621,206.670 793.567,208.990 793.461,211.775 C793.354,214.559 793.118,217.506 792.756,220.614 C792.392,223.722 791.847,226.831 791.121,229.939 C790.394,233.048 789.411,235.842 788.172,238.326 C786.932,240.808 785.394,242.826 783.557,244.380 C781.719,245.935 779.475,246.712 776.826,246.712 C775.800,246.712 774.881,246.495 774.069,246.064 C773.257,245.632 772.595,244.963 772.082,244.057 C771.996,243.840 771.911,243.636 771.826,243.441 C771.739,243.247 771.697,243.042 771.697,242.826 C771.697,242.438 771.826,242.082 772.082,241.758 C772.338,241.434 772.680,241.272 773.108,241.272 C773.492,241.272 773.781,241.412 773.973,241.693 C774.165,241.973 774.358,242.297 774.550,242.664 C774.742,243.031 774.977,243.354 775.255,243.636 C775.533,243.916 775.970,244.057 776.569,244.057 C777.937,244.057 779.166,243.495 780.255,242.373 C781.345,241.250 782.317,239.793 783.172,238.002 C784.026,236.210 784.764,234.223 785.384,232.044 C786.003,229.863 786.506,227.705 786.890,225.568 C787.275,223.431 787.563,221.446 787.756,219.610 C787.948,217.776 788.044,216.340 788.044,215.304 C788.044,214.441 788.033,213.566 788.012,212.681 C787.990,211.797 787.937,210.922 787.852,210.058 C787.253,211.095 786.451,212.293 785.448,213.652 C784.443,215.012 783.342,216.308 782.146,217.538 C780.949,218.768 779.678,219.816 778.332,220.679 C776.986,221.543 775.672,221.974 774.390,221.974 C773.492,221.974 772.744,221.802 772.146,221.456 C771.547,221.111 771.066,220.658 770.704,220.096 C770.340,219.535 770.084,218.888 769.934,218.153 C769.844,217.712 769.835,217.248 769.800,216.791 C769.280,217.416 768.729,218.023 768.140,218.607 C767.007,219.730 765.811,220.679 764.550,221.456 C763.289,222.233 762.060,222.622 760.864,222.622 C759.753,222.622 758.887,222.330 758.268,221.747 C757.648,221.165 757.178,220.442 756.858,219.578 C756.537,218.715 756.345,217.787 756.281,216.793 C756.217,215.801 756.185,214.894 756.185,214.073 C756.185,212.822 756.227,211.591 756.313,210.382 C756.398,209.174 756.441,207.944 756.441,206.691 C756.441,206.519 756.409,206.260 756.345,205.914 C756.281,205.569 756.121,205.396 755.864,205.396 C755.650,205.396 755.393,205.525 755.095,205.784 C754.795,206.043 754.560,206.260 754.390,206.432 C753.321,207.468 752.316,208.677 751.377,210.058 C750.436,211.441 749.582,212.757 748.813,214.009 C747.872,215.520 747.018,217.063 746.249,218.639 C745.479,220.215 744.731,221.823 744.005,223.463 C743.748,223.981 743.396,224.456 742.947,224.888 C742.498,225.319 741.975,225.536 741.377,225.536 C740.906,225.536 740.564,225.374 740.351,225.050 C740.137,224.726 740.030,224.348 740.030,223.917 C740.030,221.728 740.198,219.496 740.508,217.226 C740.477,217.266 740.448,217.303 740.416,217.344 C739.475,218.532 738.439,219.665 737.307,220.744 C736.174,221.823 735.009,222.741 733.813,223.496 C732.616,224.251 731.441,224.629 730.287,224.629 C729.005,224.629 727.990,224.229 727.243,223.431 C726.494,222.633 725.906,221.661 725.480,220.517 C725.052,219.374 724.774,218.164 724.646,216.890 C724.626,216.690 724.610,216.500 724.593,216.307 C724.309,216.724 724.012,217.151 723.685,217.603 C722.702,218.963 721.612,220.248 720.416,221.456 C719.219,222.665 717.958,223.690 716.634,224.532 C715.309,225.374 714.005,225.795 712.723,225.795 C711.612,225.795 710.640,225.449 709.807,224.759 C708.973,224.067 708.268,223.172 707.691,222.071 C707.114,220.970 706.633,219.730 706.249,218.347 C705.864,216.966 705.565,215.585 705.351,214.203 C705.137,212.822 704.988,211.515 704.903,210.285 C704.817,209.055 704.774,208.030 704.774,207.209 C704.774,205.094 704.849,202.967 704.999,200.830 C705.148,198.693 705.436,196.589 705.864,194.516 C705.436,194.646 704.988,194.711 704.518,194.711 C703.492,194.711 702.980,194.193 702.980,193.156 C702.980,192.293 703.353,191.732 704.101,191.473 C704.849,191.214 705.565,191.063 706.249,191.019 C706.590,189.854 707.082,188.289 707.723,186.324 C708.364,184.360 709.155,182.418 710.095,180.496 C711.035,178.576 712.114,176.924 713.332,175.542 C714.550,174.161 715.907,173.470 717.403,173.470 C718.086,173.470 718.621,173.686 719.006,174.117 C719.390,174.549 719.679,175.067 719.871,175.672 C720.063,176.277 720.181,176.913 720.224,177.582 C720.266,178.252 720.288,178.823 720.288,179.298 C720.288,180.982 720.170,182.688 719.935,184.414 C719.700,186.141 719.347,187.825 718.877,189.465 C719.604,189.379 720.330,189.271 721.057,189.141 C721.783,189.012 722.509,188.947 723.237,188.947 C723.835,188.947 724.134,189.228 724.134,189.789 C724.134,190.135 724.059,190.383 723.910,190.534 C723.759,190.685 723.557,190.847 723.301,191.019 C723.129,191.106 722.809,191.225 722.339,191.376 C721.868,191.527 721.355,191.678 720.801,191.829 C720.245,191.981 719.711,192.120 719.198,192.250 C718.685,192.379 718.301,192.466 718.044,192.509 C717.531,194.495 716.783,196.491 715.800,198.499 C714.817,200.506 713.791,202.396 712.723,204.165 C712.467,204.641 712.189,205.083 711.890,205.493 C711.591,205.904 711.291,206.325 710.993,206.756 C710.821,206.972 710.640,207.199 710.448,207.436 C710.255,207.673 710.116,207.900 710.031,208.116 C709.945,208.289 709.903,208.526 709.903,208.828 C709.903,209.131 709.903,209.368 709.903,209.540 C709.903,210.188 709.956,211.192 710.063,212.552 C710.169,213.912 710.362,215.283 710.640,216.664 C710.917,218.046 711.323,219.254 711.858,220.290 C712.392,221.326 713.086,221.844 713.941,221.844 C714.924,221.844 715.939,221.467 716.986,220.711 C718.033,219.956 719.038,219.060 719.999,218.024 C720.961,216.988 721.836,215.898 722.628,214.753 C723.418,213.610 724.048,212.649 724.519,211.872 C724.524,211.862 724.536,211.850 724.542,211.840 C724.610,211.104 724.717,210.329 724.871,209.508 C725.148,208.018 725.458,206.713 725.800,205.590 C726.185,204.424 726.708,203.443 727.371,202.644 C728.033,201.845 729.047,201.445 730.416,201.445 C731.398,201.445 731.890,201.921 731.890,202.870 C731.890,203.302 731.815,203.809 731.666,204.392 C731.515,204.975 731.334,205.580 731.121,206.205 C730.906,206.832 730.693,207.458 730.480,208.083 C730.265,208.710 730.095,209.260 729.967,209.735 C729.582,211.591 729.390,213.513 729.390,215.498 C729.390,215.887 729.400,216.405 729.422,217.052 C729.443,217.700 729.528,218.347 729.678,218.995 C729.828,219.643 730.052,220.204 730.352,220.679 C730.650,221.154 731.078,221.391 731.634,221.391 C732.488,221.391 733.418,220.992 734.422,220.193 C735.426,219.395 736.409,218.445 737.371,217.344 C738.333,216.243 739.208,215.110 739.999,213.944 C740.606,213.049 741.104,212.297 741.497,211.681 C741.997,209.166 742.491,206.725 742.979,204.360 C743.193,203.367 743.385,202.352 743.556,201.316 C743.726,200.280 743.919,199.266 744.133,198.272 C744.303,197.495 744.763,196.783 745.511,196.135 C746.259,195.488 747.039,195.164 747.851,195.164 C748.577,195.164 749.079,195.358 749.358,195.747 C749.635,196.135 749.774,196.676 749.774,197.366 C749.774,198.489 749.592,199.665 749.229,200.895 C748.866,202.125 748.492,203.259 748.108,204.295 C747.637,205.504 747.274,206.734 747.018,207.986 C746.761,209.239 746.547,210.490 746.377,211.742 C746.847,211.052 747.541,210.058 748.460,208.763 C749.379,207.468 750.372,206.195 751.441,204.942 C752.509,203.691 753.588,202.590 754.678,201.640 C755.768,200.691 756.719,200.215 757.531,200.215 C758.172,200.215 758.685,200.453 759.069,200.927 C759.454,201.403 759.743,201.986 759.935,202.676 C760.127,203.367 760.244,204.058 760.287,204.748 C760.330,205.439 760.352,206.022 760.352,206.497 C760.352,208.008 760.309,209.519 760.223,211.030 C760.137,212.541 760.095,214.052 760.095,215.563 C760.095,215.951 760.105,216.372 760.127,216.826 C760.148,217.279 760.223,217.700 760.352,218.088 C760.480,218.477 760.682,218.801 760.961,219.060 C761.238,219.319 761.634,219.448 762.146,219.448 C763.001,219.448 763.866,219.114 764.743,218.445 C765.618,217.776 766.463,216.977 767.275,216.049 C768.086,215.121 768.813,214.160 769.454,213.167 C769.821,212.599 770.133,212.086 770.402,211.617 C770.698,210.624 771.052,209.648 771.505,208.698 C772.060,207.533 772.701,206.432 773.428,205.396 C774.154,204.360 774.924,203.432 775.736,202.611 C777.360,200.971 779.176,199.708 781.185,198.823 C783.193,197.938 785.352,197.495 787.659,197.495 C788.129,197.495 788.749,197.571 789.518,197.722 C790.288,197.874 791.057,198.089 791.826,198.369 C792.595,198.651 793.257,199.017 793.813,199.470 C794.368,199.924 794.647,200.453 794.647,201.057 C794.647,201.273 794.572,201.435 794.422,201.543 C794.272,201.651 794.112,201.705 793.942,201.705 ZM716.121,189.789 C716.634,188.149 717.060,186.314 717.403,184.284 C717.745,182.256 717.916,180.378 717.916,178.650 C717.916,178.564 717.916,178.414 717.916,178.197 C717.916,177.982 717.894,177.766 717.852,177.550 C717.809,177.334 717.745,177.140 717.659,176.967 C717.573,176.795 717.445,176.708 717.275,176.708 C716.548,176.708 715.821,177.302 715.095,178.489 C714.368,179.676 713.706,181.058 713.108,182.633 C712.509,184.210 712.007,185.753 711.602,187.263 C711.195,188.775 710.950,189.854 710.864,190.501 C711.719,190.372 712.595,190.275 713.493,190.210 C714.390,190.145 715.266,190.005 716.121,189.789 ZM710.961,202.028 C711.537,201.079 712.092,200.075 712.627,199.017 C713.161,197.960 713.642,196.924 714.070,195.909 C714.496,194.895 714.817,193.998 715.031,193.221 C714.262,193.394 713.493,193.513 712.723,193.577 C711.954,193.642 711.206,193.783 710.480,193.998 C710.095,195.682 709.849,197.398 709.743,199.147 C709.635,200.895 709.518,202.633 709.390,204.360 C709.860,203.756 710.384,202.978 710.961,202.028 ZM731.121,197.430 C730.437,197.430 729.903,197.183 729.518,196.686 C729.134,196.190 728.941,195.617 728.941,194.970 C728.941,194.150 729.230,193.373 729.807,192.638 C730.384,191.905 731.099,191.537 731.954,191.537 C732.637,191.537 733.182,191.786 733.589,192.282 C733.994,192.779 734.198,193.351 734.198,193.998 C734.198,194.862 733.898,195.650 733.300,196.362 C732.701,197.074 731.975,197.430 731.121,197.430 ZM697.787,208.245 C697.146,208.375 696.462,208.429 695.736,208.407 C695.009,208.386 694.367,208.375 693.813,208.375 C694.624,209.109 695.287,210.037 695.800,211.159 C696.313,212.282 696.718,213.469 697.018,214.721 C697.316,215.974 697.531,217.225 697.659,218.477 C697.787,219.730 697.851,220.873 697.851,221.909 C697.851,223.506 697.691,225.352 697.370,227.446 C697.050,229.540 696.483,231.526 695.672,233.404 C694.859,235.282 693.781,236.868 692.434,238.164 C691.088,239.459 689.389,240.106 687.338,240.106 C686.441,240.106 685.681,239.793 685.062,239.167 C684.442,238.541 683.929,237.720 683.524,236.707 C683.117,235.692 682.808,234.570 682.594,233.339 C682.380,232.109 682.220,230.900 682.114,229.713 C682.006,228.525 681.942,227.403 681.921,226.345 C681.899,225.287 681.889,224.456 681.889,223.852 C681.889,221.438 681.955,219.047 682.069,216.671 C681.700,217.154 681.299,217.669 680.864,218.218 C680.009,219.298 679.079,220.312 678.076,221.262 C677.071,222.212 676.002,223.010 674.870,223.658 C673.738,224.305 672.616,224.629 671.505,224.629 C670.436,224.629 669.582,224.251 668.941,223.496 C668.300,222.741 667.808,221.834 667.466,220.776 C667.124,219.719 666.910,218.618 666.825,217.473 C666.739,216.330 666.718,215.369 666.761,214.591 C666.333,215.239 665.788,216.049 665.126,217.020 C664.463,217.991 663.726,218.930 662.915,219.837 C662.103,220.744 661.258,221.521 660.383,222.168 C659.506,222.816 658.641,223.140 657.786,223.140 C657.017,223.140 656.376,222.903 655.863,222.427 C655.350,221.953 654.955,221.370 654.677,220.679 C654.399,219.989 654.207,219.254 654.100,218.477 C654.076,218.301 654.065,218.146 654.046,217.979 C653.090,219.154 652.066,220.292 650.959,221.386 C649.783,222.548 648.565,223.540 647.305,224.365 C646.044,225.188 644.901,225.600 643.876,225.600 C642.807,225.600 641.974,225.273 641.376,224.618 C640.777,223.962 640.328,223.175 640.030,222.254 C639.730,221.333 639.549,220.355 639.485,219.319 C639.420,218.283 639.388,217.376 639.388,216.599 C639.388,215.391 639.441,214.203 639.549,213.037 C639.655,211.872 639.709,210.685 639.709,209.476 C639.709,208.397 639.313,207.533 638.523,206.885 C637.732,206.238 636.866,205.763 635.927,205.461 C635.584,206.411 635.211,207.403 634.805,208.439 C634.398,209.476 633.940,210.512 633.427,211.548 C632.914,212.584 632.358,213.578 631.760,214.527 C631.161,215.477 630.499,216.319 629.773,217.052 C629.611,217.216 629.401,217.379 629.191,217.542 C629.022,217.724 628.860,217.910 628.683,218.088 C627.230,219.557 625.638,220.831 623.908,221.909 C622.177,222.989 620.339,223.830 618.394,224.435 C616.449,225.039 614.473,225.341 612.465,225.341 C609.558,225.341 607.005,224.747 604.804,223.561 C602.603,222.374 600.766,220.808 599.291,218.866 C597.817,216.923 596.705,214.689 595.958,212.163 C595.210,209.637 594.836,207.037 594.836,204.360 C594.836,202.374 595.038,200.280 595.445,198.078 C595.851,195.876 596.460,193.697 597.272,191.537 C598.083,189.379 599.088,187.307 600.285,185.321 C601.481,183.335 602.859,181.587 604.420,180.075 C605.979,178.564 607.731,177.366 609.676,176.481 C611.620,175.597 613.725,175.153 615.991,175.153 C617.273,175.153 618.459,175.391 619.548,175.866 C620.638,176.341 621.568,176.978 622.337,177.776 C623.106,178.576 623.704,179.536 624.132,180.658 C624.559,181.781 624.773,182.989 624.773,184.284 C624.773,184.846 624.730,185.656 624.645,186.713 C624.559,187.771 624.420,188.850 624.228,189.951 C624.036,191.052 623.779,192.067 623.459,192.994 C623.138,193.923 622.743,194.560 622.273,194.905 C621.845,195.207 621.332,195.358 620.734,195.358 C620.350,195.358 619.986,195.283 619.645,195.132 C619.302,194.981 619.132,194.668 619.132,194.193 C619.132,193.933 619.185,193.621 619.292,193.254 C619.398,192.887 619.537,192.499 619.709,192.088 C619.879,191.678 620.039,191.278 620.189,190.890 C620.339,190.501 620.456,190.177 620.542,189.918 C620.798,189.055 621.001,188.138 621.151,187.166 C621.300,186.195 621.375,185.256 621.375,184.349 C621.375,182.839 620.959,181.532 620.125,180.431 C619.292,179.330 618.084,178.780 616.503,178.780 C614.965,178.780 613.533,179.233 612.208,180.140 C610.883,181.047 609.686,182.245 608.618,183.734 C607.550,185.223 606.599,186.897 605.766,188.753 C604.933,190.610 604.237,192.488 603.682,194.387 C603.127,196.287 602.710,198.110 602.432,199.859 C602.154,201.607 602.016,203.108 602.016,204.360 C602.016,206.475 602.176,208.559 602.497,210.609 C602.817,212.660 603.426,214.506 604.323,216.146 C605.221,217.787 606.460,219.114 608.042,220.128 C609.622,221.143 611.673,221.650 614.196,221.650 C617.016,221.650 619.655,221.035 622.113,219.805 C624.570,218.574 626.674,216.858 628.427,214.656 C628.811,214.182 629.153,213.685 629.452,213.167 C629.751,212.649 630.072,212.131 630.414,211.613 C630.428,211.593 630.448,211.569 630.462,211.549 C630.734,211.095 631.016,210.647 631.279,210.188 C632.369,208.289 633.042,206.238 633.298,204.036 C632.700,203.259 632.273,202.407 632.016,201.478 C631.760,200.550 631.632,199.590 631.632,198.596 C631.632,198.078 631.706,197.409 631.856,196.589 C632.005,195.769 632.241,194.970 632.561,194.193 C632.882,193.415 633.276,192.747 633.747,192.185 C634.217,191.624 634.773,191.343 635.414,191.343 C635.884,191.343 636.247,191.549 636.504,191.958 C636.760,192.369 636.974,192.844 637.145,193.383 C637.315,193.923 637.422,194.474 637.465,195.034 C637.507,195.596 637.529,196.049 637.529,196.394 C637.529,197.430 637.465,198.467 637.337,199.503 C637.850,200.280 638.533,200.917 639.388,201.413 C640.243,201.910 641.087,202.449 641.921,203.032 C642.754,203.615 643.469,204.327 644.068,205.169 C644.666,206.011 644.966,207.144 644.966,208.569 C644.966,209.304 644.858,210.145 644.645,211.095 C644.303,212.606 644.004,214.117 643.748,215.628 C643.491,217.139 643.363,218.671 643.363,220.225 C643.363,220.658 643.416,221.165 643.523,221.747 C643.629,222.330 643.982,222.622 644.581,222.622 C645.307,222.622 646.152,222.255 647.113,221.521 C648.075,220.787 649.025,219.924 649.966,218.930 C650.905,217.938 651.782,216.934 652.594,215.919 C653.315,215.018 653.859,214.287 654.243,213.709 C654.446,212.746 654.751,211.724 655.158,210.641 C655.969,208.483 657.049,206.443 658.395,204.522 C659.742,202.601 661.280,200.992 663.011,199.697 C664.742,198.402 666.547,197.754 668.428,197.754 C668.898,197.754 669.367,197.971 669.838,198.402 C670.308,198.834 670.543,199.287 670.543,199.762 C670.543,199.978 670.479,200.140 670.351,200.247 C670.223,200.356 670.072,200.453 669.902,200.539 C668.748,201.230 667.647,201.953 666.601,202.708 C665.553,203.464 664.559,204.338 663.620,205.331 C661.953,207.058 660.628,208.990 659.645,211.127 C658.662,213.264 658.171,215.563 658.171,218.024 C658.171,218.283 658.213,218.607 658.299,218.995 C658.384,219.384 658.620,219.578 659.004,219.578 C659.474,219.578 660.008,219.286 660.607,218.704 C661.205,218.121 661.825,217.387 662.466,216.502 C663.107,215.617 663.737,214.624 664.357,213.523 C664.976,212.422 665.564,211.354 666.120,210.317 C666.675,209.281 667.156,208.321 667.562,207.436 C667.968,206.551 668.278,205.893 668.492,205.461 C668.705,204.986 668.973,204.544 669.293,204.133 C669.614,203.723 670.072,203.518 670.671,203.518 C671.013,203.518 671.345,203.583 671.665,203.712 C671.986,203.842 672.146,204.123 672.146,204.554 C672.146,205.029 671.996,205.655 671.697,206.432 C671.398,207.209 671.162,207.835 670.992,208.310 C670.649,209.433 670.404,210.631 670.255,211.904 C670.105,213.178 670.030,214.376 670.030,215.498 C670.030,215.844 670.040,216.362 670.062,217.052 C670.084,217.743 670.159,218.445 670.287,219.157 C670.415,219.869 670.617,220.496 670.896,221.035 C671.173,221.575 671.569,221.844 672.082,221.844 C672.851,221.844 673.705,221.499 674.646,220.808 C675.586,220.118 676.505,219.309 677.402,218.380 C678.300,217.452 679.133,216.492 679.903,215.498 C680.672,214.506 681.249,213.707 681.633,213.102 C681.847,212.757 682.082,212.401 682.338,212.034 C682.353,212.013 682.372,211.998 682.387,211.979 C682.782,207.059 683.400,202.215 684.293,197.463 C685.896,188.937 688.300,180.464 691.505,172.045 C691.718,171.571 691.932,171.096 692.146,170.620 C692.359,170.146 692.637,169.714 692.979,169.325 C693.236,169.066 693.566,168.797 693.973,168.516 C694.379,168.235 694.816,167.988 695.287,167.771 C695.757,167.555 696.226,167.382 696.697,167.253 C697.167,167.123 697.595,167.059 697.979,167.059 C698.577,167.059 698.994,167.253 699.229,167.641 C699.464,168.030 699.582,168.483 699.582,169.001 C699.582,169.433 699.528,169.833 699.422,170.199 C699.315,170.567 699.175,170.923 699.005,171.268 C698.449,172.521 697.861,173.761 697.242,174.992 C696.622,176.222 696.034,177.464 695.479,178.715 C693.684,182.903 692.103,187.166 690.736,191.505 C689.367,195.844 688.321,200.280 687.594,204.813 C687.936,204.942 688.385,205.051 688.941,205.137 C689.496,205.224 690.072,205.289 690.672,205.331 C691.269,205.375 691.857,205.407 692.434,205.428 C693.011,205.450 693.492,205.461 693.877,205.461 C694.432,205.461 694.967,205.439 695.479,205.396 C695.992,205.353 696.505,205.289 697.018,205.201 C697.359,205.115 697.691,205.040 698.011,204.975 C698.332,204.910 698.663,204.878 699.005,204.878 C699.261,204.878 699.507,204.921 699.742,205.007 C699.977,205.094 700.095,205.310 700.095,205.655 C700.095,206.475 699.871,207.080 699.422,207.468 C698.973,207.857 698.428,208.116 697.787,208.245 ZM693.236,223.593 C693.236,222.298 693.117,220.960 692.883,219.578 C692.648,218.197 692.274,216.880 691.761,215.628 C691.248,214.376 690.575,213.232 689.742,212.195 C688.909,211.159 687.872,210.317 686.633,209.670 C686.162,212.692 685.756,215.715 685.415,218.736 C685.072,221.758 684.902,224.801 684.902,227.867 C684.902,228.342 684.923,229.108 684.966,230.166 C685.008,231.223 685.126,232.313 685.319,233.436 C685.511,234.558 685.788,235.541 686.152,236.383 C686.515,237.225 686.995,237.646 687.594,237.646 C688.364,237.646 689.047,237.300 689.646,236.609 C690.244,235.918 690.757,235.098 691.184,234.149 C691.611,233.198 691.964,232.227 692.242,231.234 C692.520,230.241 692.701,229.464 692.787,228.903 C692.957,228.039 693.075,227.187 693.139,226.345 C693.204,225.503 693.236,224.650 693.236,223.787 L693.236,223.593 ZM1241.125,217.311 C1241.808,217.311 1242.440,217.560 1243.016,218.056 C1243.593,218.553 1243.882,219.168 1243.882,219.902 C1243.882,220.766 1243.743,221.532 1243.465,222.201 C1243.187,222.870 1242.536,223.204 1241.510,223.204 C1240.783,223.204 1240.164,222.968 1239.651,222.492 C1239.138,222.017 1238.882,221.391 1238.882,220.614 C1238.882,219.880 1239.042,219.147 1239.362,218.412 C1239.683,217.679 1240.270,217.311 1241.125,217.311 Z" class="cls-2"/>
    <path d="M271.886,194.857 L271.886,63.357 C270.946,42.520 256.848,40.814 256.848,40.814 C243.151,37.901 241.810,29.543 241.810,29.543 L241.810,7.000 L279.405,7.000 C312.218,7.319 317.000,48.329 317.000,48.329 L317.000,138.500 C304.143,183.453 271.886,194.857 271.886,194.857 ZM103.228,221.157 L103.228,40.814 L223.532,40.814 L223.532,221.157 C223.532,221.157 192.304,232.429 161.669,232.429 C132.174,232.429 103.228,221.157 103.228,221.157 ZM208.000,56.000 C178.003,56.000 147.997,56.000 118.000,56.000 C118.000,102.329 118.000,148.671 118.000,195.000 C147.997,195.000 178.003,195.000 208.000,195.000 C208.000,148.671 208.000,102.329 208.000,56.000 ZM169.000,224.000 C166.333,224.333 169.000,224.000 169.000,224.000 ZM173.000,214.500 C173.000,209.253 168.747,205.000 163.500,205.000 C158.253,205.000 154.000,209.253 154.000,214.500 C154.000,219.747 158.253,224.000 163.500,224.000 C168.747,224.000 173.000,219.747 173.000,214.500 ZM68.873,40.814 C68.873,40.814 54.775,42.520 53.835,63.357 L53.835,194.857 C53.835,194.857 21.579,183.453 8.722,138.500 L8.722,48.329 C8.722,48.329 13.503,7.319 46.316,7.000 L83.911,7.000 L83.911,29.543 C83.911,29.543 82.570,37.901 68.873,40.814 Z" class="cls-2"/>
    <path d="M275.645,254.971 L241.810,254.971 L241.810,232.429 C242.103,218.711 256.848,217.400 256.848,217.400 C299.457,214.676 317.000,176.071 317.000,176.071 L317.000,202.371 C316.536,252.773 275.645,254.971 275.645,254.971 ZM8.722,202.371 L8.722,176.071 C8.722,176.071 26.264,214.676 68.873,217.400 C68.873,217.400 83.619,218.711 83.911,232.429 L83.911,254.971 L50.076,254.971 C50.076,254.971 9.185,252.773 8.722,202.371 Z" class="cls-1"/>
  </g>
</svg>
